<svg width="64" height="64" viewBox="0 0 64 64" fill="none" xmlns="http://www.w3.org/2000/svg">
<path d="M52.5999 54.9L54.9999 57.6C51.9999 60.2 48.2999 62.2 44.2999 63.2C39.1999 64.4 33.5999 64 29.3999 61.5C30.7999 60.3 31.6999 58.6 31.8999 56.7L50.3999 56.6C51.3999 56.2 51.6999 55.8 52.5999 54.9Z" fill="#FFBC00"/>
<path d="M63.8999 40C63.5999 45 61.6999 50.1 58.1999 54.3L52.5999 47.9V13.6C56.3999 14.6 58.7999 19.9 60.6999 25C62.6999 30.1 64.1999 35 63.8999 40Z" fill="#FFBC00"/>
<path d="M52.5999 48.5C52.2999 48.5 51.9999 48.2 51.9999 47.9V9.90001C51.9999 8.20001 50.5999 6.80001 48.8999 6.80001H43.4999C43.1999 6.80001 42.8999 6.50001 42.8999 6.20001C42.8999 5.90001 43.1999 5.60001 43.4999 5.60001H48.8999C51.2999 5.60001 53.2999 7.60001 53.2999 10V48C53.1999 48.2 52.9999 48.5 52.5999 48.5Z" fill="#1E1C21"/>
<path d="M14.3 36.2C14 36.2 13.7 35.9 13.7 35.6V9.89999C13.7 7.39999 15.7 5.39999 18.2 5.39999H23.6C23.9 5.39999 23.8 5.69999 23.8 5.99999C23.8 6.29999 23.9 6.59999 23.6 6.59999H18.2C16.4 6.59999 15 7.99999 15 9.79999V35.4C14.9 35.9 14.6 36.2 14.3 36.2Z" fill="#1E1C21"/>
<path d="M52.6 48.5C52.3 48.5 52 48.2 52 47.9V27.3C52 27 52.3 26.7 52.6 26.7C52.9 26.7 53.2 27 53.2 27.3V47.9C53.2 48.2 53 48.5 52.6 48.5Z" fill="#1E1C21"/>
<path d="M48.7999 57.4H31.9999C31.6999 57.4 31.3999 57.1 31.3999 56.8C31.3999 56.5 31.6999 56.2 31.9999 56.2H48.7999C50.0999 56.2 51.1999 55.4 51.6999 54.3C51.7999 54 52.1999 53.8 52.4999 54C52.7999 54.1 52.9999 54.5 52.7999 54.8C52.0999 56.3 50.4999 57.4 48.7999 57.4Z" fill="#1E1C21"/>
<path d="M41.9999 9.80001H24.8999C23.7999 9.80001 22.8999 8.90001 22.8999 7.80001V5.60001C22.8999 4.50001 23.7999 3.60001 24.8999 3.60001H28.6999C28.9999 3.60001 29.0999 3.90001 29.0999 4.20001C29.0999 4.50001 28.9999 4.80001 28.5999 4.80001H24.7999C24.3999 4.80001 23.9999 5.10001 23.9999 5.60001V7.80001C23.9999 8.20001 24.2999 8.60001 24.7999 8.60001H41.9999C42.3999 8.60001 42.7999 8.30001 42.7999 7.80001V5.60001C42.7999 5.20001 42.4999 4.80001 41.9999 4.80001H38.1999C37.8999 4.80001 37.5999 4.50001 37.5999 4.20001C37.5999 3.90001 37.8999 3.60001 38.1999 3.60001H41.9999C43.0999 3.60001 43.9999 4.50001 43.9999 5.60001V7.80001C43.9999 8.90001 43.0999 9.80001 41.9999 9.80001Z" fill="#1E1C21"/>
<path d="M37 6.9H29.8C28.8 6.9 28 6.1 28 5.1V1.8C28 0.8 28.8 0 29.8 0H37C38 0 38.8 0.8 38.8 1.8V5C38.9 6.1 38 6.9 37 6.9ZM29.8 1.2C29.5 1.2 29.2 1.5 29.2 1.8V5C29.2 5.3 29.5 5.6 29.8 5.6H37C37.3 5.6 37.6 5.3 37.6 5V1.8C37.6 1.5 37.3 1.2 37 1.2H29.8Z" fill="#1E1C21"/>
<path d="M61.0001 64C60.2001 64 59.5001 63.7 58.9001 63.1L41.8001 43.4C41.7001 43.3 41.6001 43.1 41.6001 42.9C41.6001 42.7 41.7001 42.6 41.8001 42.5L45.2001 39.5C45.3001 39.4 45.5001 39.3 45.7001 39.3C45.9001 39.3 46.0001 39.4 46.1001 39.5L63.2001 59.1C64.2001 60.2 64.1001 62 62.9001 63L62.7001 63.2C62.3001 63.7 61.6001 64 61.0001 64ZM43.1001 43.1L59.8001 62.2C60.3001 62.8 61.3001 62.9 61.9001 62.3L62.1001 62.1C62.7001 61.6 62.8001 60.6 62.2001 60L45.7001 40.9L43.1001 43.1Z" fill="#1E1C21"/>
<path d="M42.3 43.7C42.1 43.7 41.6 43.3 41.6 43.1L39.3 37C39.2 36.8 39.3 36.5 39.5 36.3C39.7 36.1 40 36.1 40.2 36.2L46 39.4C46.2 39.6 46.3 39.7 46.3 39.9C46.3 40.1 46.2 40.3 46.1 40.4L42.7 43.4C42.6 43.6 42.4 43.7 42.3 43.7ZM41.1 38.2L42.6 42L44.7 40.2L41.1 38.2Z" fill="#1E1C21"/>
<path d="M48.1 14.1H33.1C32.8 14.1 32.5 13.8 32.5 13.5C32.5 13.2 32.8 12.9 33.1 12.9H48.1C48.4 12.9 48.7 13.2 48.7 13.5C48.7 13.8 48.5 14.1 48.1 14.1Z" fill="#1E1C21"/>
<path d="M48.1 18.8H33.1C32.8 18.8 32.5 18.5 32.5 18.2C32.5 17.9 32.8 17.6 33.1 17.6H48.1C48.4 17.6 48.7 17.9 48.7 18.2C48.7 18.5 48.5 18.8 48.1 18.8Z" fill="#1E1C21"/>
<path d="M48.1 23.5H33.1C32.8 23.5 32.5 23.2 32.5 22.9C32.5 22.6 32.8 22.3 33.1 22.3H48.1C48.4 22.3 48.7 22.6 48.7 22.9C48.7 23.2 48.5 23.5 48.1 23.5Z" fill="#1E1C21"/>
<path d="M48.1 28.2H33.1C32.8 28.2 32.5 27.9 32.5 27.6C32.5 27.3 32.8 27 33.1 27H48.1C48.4 27 48.7 27.3 48.7 27.6C48.7 27.9 48.5 28.2 48.1 28.2Z" fill="#1E1C21"/>
<path d="M48.1 32.9H33.1C32.8 32.9 32.5 32.6 32.5 32.3C32.5 32 32.8 31.7 33.1 31.7H48.1C48.4 31.7 48.7 32 48.7 32.3C48.7 32.6 48.5 32.9 48.1 32.9Z" fill="#1E1C21"/>
<path d="M37.6999 37.6H32.9999C32.6999 37.6 32.3999 37.3 32.3999 37C32.3999 36.7 32.6999 36.4 32.9999 36.4H37.6999C37.9999 36.4 38.2999 36.7 38.2999 37C38.3999 37.3 38.0999 37.6 37.6999 37.6Z" fill="#1E1C21"/>
<path d="M29.1 56.9H24.4C24.1 56.9 23.8 56.6 23.8 56.3C23.8 56 24.1 55.7 24.4 55.7H29.1C29.4001 55.7 29.7001 56 29.7001 56.3C29.7001 56.6 29.4001 56.9 29.1 56.9Z" fill="#1E1C21"/>
<path d="M24.4 56.7C24.1 56.7 23.8 56.4 23.8 56.1V51.4C23.8 51.1 24.1 50.8 24.4 50.8C24.7 50.8 25 51 25 51.4V56.1C25 56.4 24.7 56.7 24.4 56.7Z" fill="#1E1C21"/>
<path d="M37.6999 42.3H32.9999C32.6999 42.3 32.3999 42 32.3999 41.7C32.3999 41.4 32.6999 41.1 32.9999 41.1H37.6999C37.9999 41.1 38.2999 41.4 38.2999 41.7C38.2999 42 38.0999 42.3 37.6999 42.3Z" fill="#1E1C21"/>
<path d="M17.5 59.4H3.2C1.4 59.4 0 58 0 56.2V38.1C0 36.4 1.4 35 3.2 35H3.6C3.9 35 4.2 35.3 4.2 35.6C4.2 35.9 3.9 36.2 3.6 36.2H3.2C2.2 36.2 1.3 37 1.3 38.1V56.2C1.3 57.3 2.2 58.2 3.3 58.2H17.6C17.9 58.2 18 58.5 18 58.8C17.9 59.1 17.8 59.4 17.5 59.4Z" fill="#1E1C21"/>
<path d="M15.8 36.2H11.9C11.6 36.2 11.3 35.9 11.3 35.6C11.3 35.3 11.6 35 11.9 35H15.8C16.1 35 16.4 35.3 16.4 35.6C16.4 35.9 16.1 36.2 15.8 36.2Z" fill="#1E1C21"/>
<path d="M27.0001 49C26.7001 49 26.4001 49 26.4001 48.7V38.1C26.4001 37 25.5001 36.2 24.5001 36.2H24.2001C23.9001 36.2 23.6001 35.9 23.6001 35.6C23.6001 35.3 23.9001 35 24.2001 35H24.5001C26.2001 35 27.7001 36.4 27.7001 38.2V48.7C27.6001 49 27.3001 49 27.0001 49Z" fill="#1E1C21"/>
<path d="M21.8999 36.2H17.9999C17.6999 36.2 17.3999 35.9 17.3999 35.6C17.3999 35.3 17.5999 35 17.9999 35H21.8999C22.1999 35 22.4999 35.3 22.4999 35.6C22.4999 35.9 22.2999 36.2 21.8999 36.2Z" fill="#1E1C21"/>
<path d="M9.6001 36.2H5.7001C5.4001 36.2 5.1001 35.9 5.1001 35.6C5.1001 35.3 5.4001 35 5.7001 35H9.6001C9.9001 35 10.2001 35.3 10.2001 35.6C10.2001 35.9 10.0001 36.2 9.6001 36.2Z" fill="#1E1C21"/>
<path d="M4.70005 39H4.50005C3.60005 39 2.80005 38.3 2.80005 37.3V33.7C2.80005 32.8 3.50005 32 4.50005 32H4.70005C5.60005 32 6.40005 32.7 6.40005 33.7V37.3C6.30005 38.3 5.60005 39 4.70005 39ZM4.50005 33.4C4.30005 33.4 4.10005 33.6 4.10005 33.8V37.4C4.10005 37.6 4.30005 37.8 4.50005 37.8H4.70005C4.90005 37.8 5.10005 37.6 5.10005 37.4V33.8C5.10005 33.6 4.90005 33.4 4.70005 33.4H4.50005Z" fill="#1E1C21"/>
<path d="M10.8 39H10.6C9.8 39 9 38.3 9 37.4V33.8C9 32.9 9.7 32.1 10.7 32.1H10.9C11.8 32.1 12.6 32.8 12.6 33.8V37.4C12.5 38.3 11.7 39 10.8 39ZM10.7 33.4C10.5 33.4 10.3 33.6 10.3 33.8V37.4C10.3 37.6 10.5 37.8 10.7 37.8H10.9C11.1 37.8 11.3 37.6 11.3 37.4V33.8C11.3 33.6 11.1 33.4 10.9 33.4H10.7Z" fill="#1E1C21"/>
<path d="M17.0001 39H16.8001C15.9001 39 15.1001 38.3 15.1001 37.3V33.7C15.1001 32.8 15.8001 32 16.8001 32H17.0001C17.9001 32 18.7001 32.7 18.7001 33.7V37.3C18.6001 38.3 17.9001 39 17.0001 39ZM16.8001 33.4C16.6001 33.4 16.4001 33.6 16.4001 33.8V37.4C16.4001 37.6 16.6001 37.8 16.8001 37.8H17.0001C17.2001 37.8 17.4001 37.6 17.4001 37.4V33.8C17.4001 33.6 17.2001 33.4 17.0001 33.4H16.8001Z" fill="#1E1C21"/>
<path d="M23.1 39H22.9C22 39 21.2 38.3 21.2 37.3V33.7C21.2 32.8 21.9 32 22.9 32H23.1C24 32 24.7999 32.7 24.7999 33.7V37.3C24.6999 38.3 24 39 23.1 39ZM22.9 33.4C22.6999 33.4 22.5 33.6 22.5 33.8V37.4C22.5 37.6 22.6999 37.8 22.9 37.8H23.1C23.3 37.8 23.5 37.6 23.5 37.4V33.8C23.5 33.6 23.3 33.4 23.1 33.4H22.9Z" fill="#1E1C21"/>
<path d="M26.7 42.6H0.6C0.3 42.6 0 42.3 0 42C0 41.7 0.3 41.4 0.6 41.4H26.7C27 41.4 27.3 41.7 27.3 42C27.3 42.3 27.1 42.6 26.7 42.6Z" fill="#1E1C21"/>
<path d="M22.6001 47H20.0001C19.7001 47 19.4001 46.7 19.4001 46.4C19.4001 46.1 19.7001 45.8 20.0001 45.8H22.6001C22.9001 45.8 23.2001 46.1 23.2001 46.4C23.2001 46.7 23.0001 47 22.6001 47Z" fill="#1E1C21"/>
<path d="M15 47H12.4C12.1 47 11.8 46.7 11.8 46.4C11.8 46.1 12.1 45.8 12.4 45.8H15C15.3 45.8 15.6 46.1 15.6 46.4C15.6 46.7 15.3 47 15 47Z" fill="#1E1C21"/>
<path d="M7.4001 47H4.7001C4.4001 47 4.1001 46.7 4.1001 46.4C4.1001 46.1 4.4001 45.8 4.7001 45.8H7.3001C7.7001 45.8 8.0001 46 8.0001 46.4C8.0001 46.7 7.7001 47 7.4001 47Z" fill="#1E1C21"/>
<path d="M15 50.8H12.4C12.1 50.8 11.8 50.5 11.8 50.2C11.8 49.9 12.1 49.6 12.4 49.6H15C15.3 49.6 15.6 49.9 15.6 50.2C15.6 50.5 15.3 50.8 15 50.8Z" fill="#1E1C21"/>
<path d="M7.4001 50.8H4.7001C4.4001 50.8 4.1001 50.5 4.1001 50.2C4.1001 49.9 4.4001 49.6 4.7001 49.6H7.3001C7.6001 49.6 7.9001 49.9 7.9001 50.2C7.9001 50.5 7.7001 50.8 7.4001 50.8Z" fill="#1E1C21"/>
<path d="M15 54.6H12.4C12.1 54.6 11.8 54.3 11.8 54C11.8 53.7 12.1 53.4 12.4 53.4H15C15.3 53.4 15.6 53.7 15.6 54C15.6 54.3 15.3 54.6 15 54.6Z" fill="#1E1C21"/>
<path d="M7.4001 54.6H4.7001C4.4001 54.6 4.1001 54.3 4.1001 54C4.1001 53.7 4.4001 53.4 4.7001 53.4H7.3001C7.7001 53.4 8.0001 53.7 8.0001 54C8.0001 54.3 7.7001 54.6 7.4001 54.6Z" fill="#1E1C21"/>
<path d="M24.5 64C20 64 16.3 60.3 16.3 55.8C16.3 51.3 20 47.6 24.5 47.6C29 47.6 32.7001 51.3 32.7001 55.8C32.7001 60.3 29 64 24.5 64ZM24.5 48.8C20.7 48.8 17.5 51.9 17.5 55.8C17.5 59.7 20.6 62.8 24.5 62.8C28.4 62.8 31.5 59.7 31.5 55.8C31.5 51.9 28.3 48.8 24.5 48.8Z" fill="#1E1C21"/>
<path d="M29.4999 18.2L27.9999 17.9C27.7999 17.4 27.5999 16.9 27.3999 16.5L28.2999 15.3C28.6999 14.8 28.5999 14.1 28.1999 13.6L26.8999 12.3C26.6999 12.1 26.2999 11.9 25.9999 11.9C25.6999 11.9 25.4999 12 25.1999 12.1L23.8999 13C23.3999 12.7 22.8999 12.5 22.3999 12.4L22.1999 10.9C22.0999 10.3 21.5999 9.79999 20.8999 9.79999H18.9999C18.3999 9.79999 17.7999 10.3 17.6999 10.9L17.3999 12.4C16.8999 12.6 16.3999 12.8 15.9999 13L14.7999 12.1C14.5999 11.9 14.2999 11.9 13.9999 11.9C13.6999 11.9 13.2999 12 13.0999 12.3L11.7999 13.6C11.2999 14 11.2999 14.8 11.6999 15.3L12.5999 16.5C12.2999 17 12.0999 17.5 11.9999 18L10.4999 18.2C9.8999 18.3 9.3999 18.8 9.3999 19.5V21.4C9.3999 22 9.8999 22.6 10.4999 22.7L11.9999 23C12.1999 23.5 12.3999 24 12.5999 24.4L11.6999 25.6C11.2999 26.1 11.3999 26.8 11.7999 27.3L13.0999 28.6C13.2999 28.8 13.6999 29 13.9999 29C14.2999 29 14.4999 28.9 14.7999 28.8L15.9999 27.9C16.3999 28.1 16.8999 28.3 17.3999 28.5L17.5999 30C17.6999 30.6 18.1999 31.1 18.8999 31.1H20.7999C21.3999 31.1 21.9999 30.6 22.0999 30L22.3999 28.5C22.8999 28.3 23.3999 28.1 23.7999 27.9L24.9999 28.8C25.1999 29 25.4999 29 25.7999 29C25.9999 29 26.0999 29 26.2999 28.9C26.4999 28.8 26.5999 28.7 26.6999 28.6L27.9999 27.3C28.4999 26.8 28.4999 26.1 28.0999 25.6L27.1999 24.4C27.3999 23.9 27.5999 23.5 27.7999 23L29.2999 22.8C29.8999 22.7 30.3999 22.2 30.3999 21.5V19.6C30.5999 18.8 30.0999 18.3 29.4999 18.2ZM19.9999 23.2C18.4999 23.2 17.2999 22 17.2999 20.5C17.2999 19 18.4999 17.8 19.9999 17.8C21.4999 17.8 22.6999 19 22.6999 20.5C22.6999 21.9 21.4999 23.2 19.9999 23.2ZM19.9999 25.2C17.3999 25.2 15.1999 23.1 15.1999 20.4C15.1999 17.8 17.2999 15.6 19.9999 15.6C22.5999 15.6 24.7999 17.7 24.7999 20.4C24.7999 23.1 22.5999 25.2 19.9999 25.2Z" fill="#FFBC00"/>
<path d="M41.3999 40.9C41.1999 40.9 41.0999 40.8 40.8999 40.7C40.6999 40.4 40.6999 40 40.9999 39.8L42.6999 38.3C42.9999 38.1 43.3999 38.1 43.5999 38.4C43.7999 38.7 43.7999 39.1 43.4999 39.3L41.7999 40.8C41.6999 40.9 41.4999 40.9 41.3999 40.9Z" fill="#1E1C21"/>
<path d="M59.5001 62.5C59.3001 62.5 59.2001 62.4 59.0001 62.3C58.8001 62 58.8001 61.7 59.0001 61.4L61.5001 59.1C61.8001 58.9 62.1001 58.9 62.4001 59.1C62.6001 59.4 62.6001 59.7 62.4001 60L59.9001 62.3C59.8001 62.4 59.6001 62.5 59.5001 62.5Z" fill="#1E1C21"/>
<path d="M4.9998 2.5H3.7998V3.4H4.9998V2.5Z" fill="#1E1C21"/>
<path d="M4.0999 1.60001H2.8999V2.50001H4.0999V1.60001Z" fill="#1E1C21"/>
<path d="M3.0999 2.5H1.8999V3.4H3.0999V2.5Z" fill="#1E1C21"/>
<path d="M4.0999 3.30002H2.8999V4.20002H4.0999V3.30002Z" fill="#1E1C21"/>
<path d="M7.89995 24.9H6.69995V25.8H7.89995V24.9Z" fill="#1E1C21"/>
<path d="M7.00005 24H5.80005V24.9H7.00005V24Z" fill="#1E1C21"/>
<path d="M6.00005 24.9H4.80005V25.8H6.00005V24.9Z" fill="#1E1C21"/>
<path d="M7.00005 25.8H5.80005V26.7H7.00005V25.8Z" fill="#1E1C21"/>
<path d="M58.4 42.6H57.2V43.5H58.4V42.6Z" fill="#1E1C21"/>
<path d="M57.4 41.7H56.2V42.6H57.4V41.7Z" fill="#1E1C21"/>
<path d="M56.5 42.6H55.3V43.5H56.5V42.6Z" fill="#1E1C21"/>
<path d="M57.4 43.5H56.2V44.4H57.4V43.5Z" fill="#1E1C21"/>
<path d="M58.4998 23H57.2998V23.9H58.4998V23Z" fill="#1E1C21"/>
<path d="M57.5999 22.1H56.3999V23H57.5999V22.1Z" fill="#1E1C21"/>
<path d="M56.5999 23H55.3999V23.9H56.5999V23Z" fill="#1E1C21"/>
<path d="M57.4998 23.9H56.2998V24.8H57.4998V23.9Z" fill="#1E1C21"/>
<path d="M36 2.99999H30.9C30.6 2.99999 30.3 2.69999 30.3 2.39999C30.3 2.09999 30.6 1.79999 30.9 1.79999H36C36.3 1.79999 36.6 2.09999 36.6 2.39999C36.6 2.69999 36.3 2.99999 36 2.99999Z" fill="#1E1C21"/>
<path d="M36 4.80001H30.9C30.6 4.80001 30.3 4.50001 30.3 4.20001C30.3 3.90001 30.6 3.60001 30.9 3.60001H36C36.3 3.60001 36.6 3.90001 36.6 4.20001C36.6 4.50001 36.3 4.80001 36 4.80001Z" fill="#1E1C21"/>
</svg>
