<svg width="21" height="24" viewBox="0 0 21 24" fill="none" xmlns="http://www.w3.org/2000/svg">
<path d="M7.46284 23.5163C8.69111 23.8315 9.9793 23.9996 11.3078 23.9996C12.7342 23.9996 15.0587 23.5531 15.0587 23.5531L15.0391 22.4657C15.0391 22.4657 15.0578 20.3426 15.0578 18.3247C15.0578 16.9166 14.5688 15.9952 14.0197 15.5294C17.4256 15.1556 21 13.8794 21 8.08044C21 6.43264 20.4084 5.08493 19.4284 4.02977C19.5855 3.64786 20.1102 2.11297 19.2761 0.0349565C19.2761 0.0349565 17.9949 -0.370805 15.0761 1.58253C13.8549 1.24771 12.5468 1.08015 11.2488 1.07442C9.94872 1.08015 8.64065 1.24771 7.42126 1.58253C4.50058 -0.370805 3.21698 0.0349565 3.21698 0.0349565C2.3853 2.11328 2.90999 3.64816 3.06715 4.02977C2.08931 5.08493 1.49368 6.43234 1.49368 8.08044C1.49368 13.865 5.06258 15.1601 8.4575 15.5411C8.02087 15.9185 7.62582 16.5836 7.487 17.5591C6.61587 17.9455 4.40152 18.6115 3.0378 16.305C3.0378 16.305 2.23027 14.8561 0.696245 14.7492C0.696245 14.7492 -0.79681 14.7302 0.591061 15.6667C0.591061 15.6667 1.59336 16.1311 2.28837 17.8749C2.28837 17.8749 3.18579 20.8106 7.43838 19.8985C7.44572 21.1584 7.45917 22.1076 7.45917 22.466" fill="#8953B7"/>
</svg>
