<svg width="24" height="20" viewBox="0 0 24 20" fill="none" xmlns="http://www.w3.org/2000/svg">
<path d="M24.0004 2.29647C23.1275 2.73377 22.146 2.95261 21.1641 3.06184C22.146 2.4057 22.9095 1.53111 23.3458 0.328068C22.3639 0.874975 21.382 1.31227 20.1822 1.53073C19.3093 0.546524 18.0005 0 16.5823 0C13.855 0 11.6733 2.18686 11.6733 4.92063C11.6733 5.35793 11.6733 5.68599 11.7822 6.01406C7.74573 5.79522 4.14587 3.8272 1.63686 0.874591C1.20059 1.63995 0.982268 2.40532 0.982268 3.38952C0.982268 5.13909 1.85518 6.56059 3.16398 7.43556C2.40042 7.43556 1.63686 7.21672 0.982268 6.77942V6.88865C0.982268 9.29436 2.61874 11.2628 4.90943 11.7001C4.47316 11.8093 4.03651 11.9189 3.60025 11.9189C3.27295 11.9189 2.94566 11.9189 2.72733 11.8097C3.38192 13.7781 5.12737 15.1996 7.30908 15.1996C5.67261 16.5118 3.4909 17.2772 1.19983 17.2772C0.763562 17.2772 0.436266 17.2772 0 17.168C2.18171 18.5895 4.6911 19.3548 7.52741 19.3548C16.5819 19.3548 21.491 11.9193 21.491 5.35831V4.70217C22.5822 4.15527 23.3458 3.28068 24.0004 2.29647Z" fill="#8953B7"/>
</svg>
