<svg width="64" height="64" viewBox="0 0 64 64" fill="none" xmlns="http://www.w3.org/2000/svg">
<path d="M32.1 61C30.8001 62.1 29.3001 63 27.7001 63.5C23.2001 64.9 17.8001 63 13.3001 60.7C8.80005 58.3 5.00005 55.4 2.70005 51.4C0.500052 47.3 -0.199948 42.1 1.10005 37.1C1.70005 34.9 2.70005 32.7 3.90005 30.9C5.50005 28.5 7.60005 26.7 10.0001 26.1C10.8001 25.9 11.7001 25.8 12.5001 25.9C13.1001 27.2 13.9001 28.4 14.8001 29.6L12.4001 32L10.0001 34.4L8.80005 35.6L1.80005 42.6C0.700052 43.7 0.700052 45.5 1.80005 46.6C2.90005 47.7 4.70005 47.7 5.80005 46.6L12.8001 39.6L15.7001 36.8L17.6001 35L19.1001 33.6L19.4001 33.3C20.3001 33.9 21.4001 34.4 22.4001 34.8L18.6001 54.4C18.2001 56.5 19.5001 58.5 21.6001 58.9L32.1 61Z" fill="#FF54AC"/>
<path d="M38 16.6C37.9 16.6 37.8 16.6 37.7 16.5C37.4 16.3 37.3 16 37.4 15.7L38.1 14.3L36.6 14.6C36.3 14.7 35.9 14.4 35.9 14.1C35.8 13.8 36.1 13.4 36.4 13.4L39.1 12.9C39.3 12.9 39.6 12.9 39.7 13.1C39.8 13.3 39.9 13.5 39.8 13.8L38.5 16.3C38.5 16.5 38.3 16.6 38 16.6Z" fill="#1E1C21"/>
<path d="M23.3001 26.7L21.4001 26.3C20.6001 26.1 20.1001 25.4 20.2001 24.6L21.0001 20.7C21.2001 19.9 21.9001 19.4 22.7001 19.5L24.6001 19.9C25.4001 20.1 25.9001 20.8 25.8001 21.6L25.0001 25.5C24.9001 26.3 24.1001 26.9 23.3001 26.7Z" fill="#FF54AC"/>
<path d="M29.7 27.9L27.8 27.5C27 27.3 26.5 26.6 26.6 25.8L27.7 20.3C27.9 19.5 28.6 19 29.4 19.1L31.3 19.5C32.1 19.7 32.6 20.4 32.5 21.2L31.4 26.7C31.2 27.6 30.5 28.1 29.7 27.9Z" fill="#FF54AC"/>
<path d="M36 29.2L34.1 28.8C33.3 28.6 32.8 27.9 32.9 27.1L34.3 20C34.5 19.2 35.2 18.7 36 18.8L37.9 19.2C38.7 19.4 39.2 20.1 39.1 20.9L37.7 28C37.5 28.8 36.8 29.3 36 29.2Z" fill="#FF54AC"/>
<path d="M21.5 18.1C21.3 18.1 21.1 18 21 17.8C20.8 17.5 20.9 17.1 21.2 16.9L25.4 14.2C25.7 14 26.1 14.1 26.3 14.4C26.5 14.7 26.4 15.1 26.1 15.3L21.8 18C21.7 18 21.6 18.1 21.5 18.1Z" fill="#1E1C21"/>
<path d="M27.3 17.5C27.1 17.5 26.9 17.4 26.8 17.2C26.6 16.9 26.7 16.5 27 16.3L30.6 13.9C30.9 13.7 31.3 13.8 31.5 14.1C31.7 14.4 31.6 14.8 31.3 15L27.7 17.4C27.6 17.4 27.4 17.5 27.3 17.5Z" fill="#1E1C21"/>
<path d="M33 18.3C32.8 18.3 32.6 18.2 32.5 18C32.3 17.7 32.4 17.3 32.7 17.1L38.9 13C39.2 12.8 39.6 12.9 39.8 13.2C40 13.5 39.9 13.9 39.6 14.1L33.4 18.2C33.3 18.3 33.2 18.3 33 18.3Z" fill="#1E1C21"/>
<path d="M33 18.3C32.8 18.3 32.6 18.2 32.5 18L30.4 14.8C30.2 14.5 30.3 14.1 30.6 13.9C30.9 13.7 31.3 13.8 31.5 14.1L33.5999 17.3C33.7999 17.6 33.7 18 33.4 18.2C33.3 18.3 33.2 18.3 33 18.3Z" fill="#1E1C21"/>
<path d="M27.3001 17.5C27.1001 17.5 26.9001 17.4 26.8001 17.3L25.2001 15.2C25.0001 14.9 25.0001 14.5 25.3001 14.3C25.6001 14.1 26.0001 14.1 26.2001 14.4L27.8001 16.5C28.0001 16.8 28.0001 17.2 27.7001 17.4C27.6001 17.4 27.5001 17.5 27.3001 17.5Z" fill="#1E1C21"/>
<path d="M9.00005 6.40002H7.80005V7.30002H9.00005V6.40002Z" fill="#1E1C21"/>
<path d="M8.00005 5.5H6.80005V6.4H8.00005V5.5Z" fill="#1E1C21"/>
<path d="M7.10002 6.40002H5.90002V7.30002H7.10002V6.40002Z" fill="#1E1C21"/>
<path d="M8.00005 7.20001H6.80005V8.10001H8.00005V7.20001Z" fill="#1E1C21"/>
<path d="M15.6 47.1H14.4V48H15.6V47.1Z" fill="#1E1C21"/>
<path d="M14.6 46.2H13.4V47.1H14.6V46.2Z" fill="#1E1C21"/>
<path d="M13.7 47.1H12.5V48H13.7V47.1Z" fill="#1E1C21"/>
<path d="M14.6 47.9H13.4V48.8H14.6V47.9Z" fill="#1E1C21"/>
<path d="M56.6 7.89996H55.4V8.79996H56.6V7.89996Z" fill="#1E1C21"/>
<path d="M55.7 7.09998H54.5V7.99998H55.7V7.09998Z" fill="#1E1C21"/>
<path d="M54.7 7.89996H53.5V8.79996H54.7V7.89996Z" fill="#1E1C21"/>
<path d="M55.7 8.79999H54.5V9.69999H55.7V8.79999Z" fill="#1E1C21"/>
<path d="M6.40007 30.5H5.20007V31.4H6.40007V30.5Z" fill="#303D46"/>
<path d="M5.40007 29.7H4.20007V30.6H5.40007V29.7Z" fill="#303D46"/>
<path d="M4.50005 30.5H3.30005V31.4H4.50005V30.5Z" fill="#303D46"/>
<path d="M5.40007 31.4H4.20007V32.3H5.40007V31.4Z" fill="#303D46"/>
<path d="M15.3 36.2L14.6 37L11.5 33.9L12.1 33.3C11.9 33.1 11.8 32.8 11.6 32.6C11.5 32.5 11.5 32.3 11.4 32.2L10.2 33.4C10 33.7 10 34.1 10.2 34.3L14.2 38.3C14.3 38.4 14.4 38.5 14.6 38.5C14.8 38.5 14.9 38.5 15.1 38.3L16.8 36.6C16.2 36.5 15.8 36.4 15.3 36.2Z" fill="#1E1C21"/>
<path d="M3.70003 48.1C2.80003 48.1 1.90003 47.8 1.30003 47.1C-0.0999701 45.8 -0.09997 43.6 1.20003 42.2C1.20003 42.2 1.20003 42.2 1.30003 42.1L8.40003 35.1C8.60003 34.9 8.90003 34.9 9.20003 35.1L13.2 39.1C13.4 39.3 13.4 39.7 13.2 40L6.20003 47C5.50003 47.7 4.70003 48.1 3.70003 48.1ZM2.20003 46.2C2.60003 46.6 3.20003 46.8 3.80003 46.8C4.40003 46.8 4.90003 46.6 5.30003 46.1L11.8 39.6L8.70003 36.5L2.20003 43C1.30003 44 1.30003 45.4 2.20003 46.2Z" fill="#1E1C21"/>
<path d="M12.7 40.3C12.5 40.3 12.4 40.2 12.3 40.1C12.1 39.9 12.1 39.5 12.3 39.2L15.1 36.4L18.7 32.9C18.9 32.7 19.3 32.7 19.6 32.9C19.8 33.1 19.8 33.5 19.6 33.8L19.3 34L16 37.3L13.1 40.1C13 40.2 12.8 40.3 12.7 40.3Z" fill="#1E1C21"/>
<path d="M8.39998 36.6C8.19998 36.6 8.09998 36.5 7.99998 36.4C7.79998 36.2 7.79998 35.8 7.99998 35.5L14.4 29.1C14.6 28.9 15 28.9 15.3 29.1C15.5 29.3 15.5 29.7 15.3 30L8.89998 36.4C8.69998 36.5 8.59998 36.6 8.39998 36.6Z" fill="#1E1C21"/>
<path d="M3.9 46C3.5 46 3.1 45.8 2.7 45.5C2.1 44.9 2.1 43.8 2.7 43.2L4.6 41.3C4.9 41 5.3 40.8 5.8 40.8C6.2 40.8 6.6 41 7 41.3C7.3 41.6 7.5 42 7.5 42.5C7.5 42.9 7.3 43.3 7 43.7L5 45.5C4.7 45.8 4.3 46 3.9 46ZM5.8 42C5.7 42 5.6 42 5.5 42.1L3.6 44C3.5 44.1 3.5 44.4 3.6 44.5C3.8 44.8 4 44.8 4.2 44.6L6.1 42.7C6.2 42.6 6.2 42.5 6.2 42.4C6.2 42.3 6.2 42.2 6.1 42.1C6 42 5.9 42 5.8 42Z" fill="#1E1C21"/>
<path d="M44.1 64C43.8 64 43.5 64 43.2 63.9L21.2 59.5C18.8 59 17.2 56.7 17.7 54.3L21.5 34.7C21.6 34.4 21.9 34.1 22.2 34.2C22.5 34.3 22.8 34.6 22.7 34.9L19 54.5C18.7 56.2 19.8 57.9 21.5 58.2L43.5 62.6C44.2 62.7 44.9 62.6 45.5 62.4L54.8 58C55.7 57.6 56.4 56.7 56.6 55.7L62.5 22.3C62.8 20.6 61.7 18.9 60 18.6L45.9 15.9C45.6 15.8 45.3 15.5 45.4 15.2C45.5 14.9 45.8 14.6 46.1 14.7L60.2 17.4C62.6 17.9 64.1 20.2 63.7 22.5L57.8 55.9C57.6 57.3 56.6 58.5 55.3 59.1L46 63.5C45.4 63.8 44.7 64 44.1 64Z" fill="#1E1C21"/>
<path d="M44.7 63.9C44.5 63.9 44.3 63.8 44.2 63.7C44 63.5 44 63.3 44 63L44.9 58.8C45.2 57.6 45.9 56.5 46.9 55.9C48 55.2 49.2 55.1 50.4 55.4L56.3 57C56.4 57 56.4 57 56.5 57.1C56.8 57.3 56.9 57.7 56.7 58C56.5 58.3 56.2 58.4 55.9 58.3L50 56.7C49.1 56.5 48.2 56.6 47.5 57.1C46.7 57.6 46.2 58.3 46 59.2L45.2 63.2C45.3 63.4 45.2 63.7 45 63.9C44.9 63.9 44.8 63.9 44.7 63.9Z" fill="#1E1C21"/>
<path d="M17.1 28.9H17C16.7 28.8 16.4 28.5 16.5 28.2L20 10.5C20.2 9.29998 20.9 8.29998 21.9 7.59998C22.9 6.89998 24.1 6.69998 25.3 6.89998L40.8 9.99998L42 10.2C42.1 10.4 42.3 10.6 42.3 10.9C42.3 11.2 42.1 11.5 41.8 11.4L40.6 11.2L25 8.19998C24.1 7.99998 23.3 8.19998 22.6 8.69998C21.9 9.19998 21.4 9.89998 21.2 10.8L17.7 28.5C17.7 28.7 17.4 28.9 17.1 28.9Z" fill="#1E1C21"/>
<path d="M28.5 36.6C18.4 36.6 10.2 28.4 10.2 18.3C10.2 8.2 18.4 0 28.5 0C38.6 0 46.7999 8.2 46.7999 18.3C46.7999 28.4 38.6 36.6 28.5 36.6ZM28.5 1.2C19.1 1.2 11.4 8.9 11.4 18.3C11.4 27.7 19.1 35.4 28.5 35.4C37.9 35.4 45.5999 27.7 45.5999 18.3C45.5999 8.9 38 1.2 28.5 1.2Z" fill="#1E1C21"/>
<path d="M28.5 34.1C19.8 34.1 12.7 27 12.7 18.3C12.7 9.6 19.8 2.5 28.5 2.5C37.2 2.5 44.2999 9.6 44.2999 18.3C44.2999 27 37.3 34.1 28.5 34.1ZM28.5 3.8C20.5 3.8 13.9 10.3 13.9 18.4C13.9 26.5 20.4 33 28.5 33C36.6 33 43.0999 26.5 43.0999 18.4C43.0999 10.3 36.6 3.8 28.5 3.8Z" fill="#1E1C21"/>
<path d="M58.5 24.6L48.7 22.7C48.4 22.6 48.1 22.3 48.2 22C48.3 21.7 48.6 21.4 48.9 21.5L58.6 23.4C58.9 23.5 59.2 23.8 59.1 24.1C59 24.4 58.8 24.6 58.5 24.6Z" fill="#1E1C21"/>
<path d="M57.5 30.7L47.7 28.8C47.4 28.7 47.1 28.4 47.2 28.1C47.3 27.8 47.6 27.5 47.9 27.6L57.6 29.5C57.9 29.6 58.2 29.9 58.1 30.2C58 30.5 57.8 30.7 57.5 30.7Z" fill="#1E1C21"/>
<path d="M55.9 36.9L46 35C45.7 34.9 45.4 34.6 45.5 34.3C45.6 34 45.9 33.7 46.2 33.8L55.9 35.7C56.2 35.8 56.5 36.1 56.4 36.4C56.4 36.7 56.2 36.9 55.9 36.9Z" fill="#1E1C21"/>
<path d="M54.9 43.2L38.2 40C37.9 39.9 37.6 39.6 37.7 39.3C37.8 39 38.1 38.7 38.4 38.8L55 42C55.3 42.1 55.6 42.4 55.5 42.7C55.4 43 55.2 43.2 54.9 43.2Z" fill="#1E1C21"/>
<path d="M53.7999 49.4L37.0999 46.2C36.7999 46.1 36.4999 45.8 36.5999 45.5C36.6999 45.2 36.9999 44.9 37.2999 45L53.8999 48.2C54.1999 48.3 54.4999 48.6 54.3999 48.9C54.2999 49.2 54.0999 49.4 53.7999 49.4Z" fill="#1E1C21"/>
<path d="M29.3 45.7C29.2 45.7 29 45.7 28.9 45.7L26 45C25.5 44.9 25 44.6 24.7 44.1C24.4 43.6 24.3 43.1 24.4 42.6L25 39.6C25.2 38.5 26.3 37.8 27.4 38L30.4 38.6C31.5 38.8 32.2 39.9 32 41L31.4 44C31.3 44.5 31 45 30.5 45.3C30.1 45.5 29.8 45.7 29.3 45.7ZM27 39.3C26.6 39.3 26.3 39.6 26.2 39.9L25.6 42.9C25.6 43.1 25.6 43.3 25.7 43.5C25.8 43.7 26 43.8 26.2 43.8L29.2 44.4C29.4 44.4 29.6 44.4 29.8 44.3C30 44.2 30.1 44 30.1 43.8L30.7 40.8C30.8 40.4 30.5 40 30.1 39.9L27.1 39.3H27Z" fill="#1E1C21"/>
<path d="M27.6 54.7C27.5 54.7 27.3 54.7 27.2 54.7L24.3 54.1C23.8 54 23.3 53.7 23 53.2C22.7 52.7 22.6 52.2 22.7 51.7L23.3 48.8C23.5 47.7 24.6 47 25.7 47.2L28.6 47.8C29.1 47.9 29.6 48.2 29.9 48.7C30.2 49.2 30.3 49.7 30.2 50.2L29.6 53.1C29.5 53.6 29.2 54.1 28.7 54.4C28.4 54.6 28 54.7 27.6 54.7ZM25.2 48.4C24.8 48.4 24.5 48.7 24.4 49L23.9 52C23.9 52.2 23.9 52.4 24 52.6C24.1 52.8 24.3 52.9 24.5 52.9L27.4 53.5C27.6 53.5 27.8 53.5 28 53.4C28.2 53.3 28.3 53.1 28.3 52.9L28.9 50C28.9 49.8 28.9 49.6 28.8 49.4C28.7 49.2 28.5 49 28.3 49L25.4 48.4C25.3 48.4 25.3 48.4 25.2 48.4Z" fill="#1E1C21"/>
<path d="M28.3 43.8C28.1 43.8 27.9 43.7 27.8 43.6L25.9 41C25.7 40.7 25.7 40.3 26 40.1C26.3 39.9 26.7 39.9 26.9 40.2L28.5 42.2L33.1 38.6C33.4 38.4 33.8 38.4 34 38.7C34.2 39 34.2 39.4 33.9 39.6L28.8 43.6C28.6 43.7 28.5 43.8 28.3 43.8Z" fill="#1E1C21"/>
<path d="M26.6001 52.8C26.6001 52.8 26.5001 52.8 26.6001 52.8C26.4001 52.8 26.2001 52.7 26.1001 52.6L24.2001 50.1C24.0001 49.8 24.0001 49.4 24.3001 49.2C24.6001 49 25.0001 49 25.2001 49.3L26.8001 51.3L31.4001 47.7C31.7001 47.5 32.1001 47.5 32.3001 47.8C32.5001 48.1 32.5001 48.5 32.2001 48.7L27.1001 52.7C26.9001 52.8 26.7001 52.8 26.6001 52.8Z" fill="#1E1C21"/>
</svg>
