<svg width="64" height="64" viewBox="0 0 64 64" fill="none" xmlns="http://www.w3.org/2000/svg">
<g clip-path="url(#clip0)">
<path d="M29.4 20.1V15.5C29.4 14.9 29.9 14.4 30.5 14.4H29.9C29.6999 14.4 29.5 14.2 29.6 14L34.5 4.80001C32.2999 2.90001 28.1 1.90001 24.6 2.10001C20.1 2.10001 16.6 4.00001 12.3 6.60001C7.99995 9.20001 2.89995 12.4 2.29995 16.3C2.09995 17.5 2.39995 18.8 2.89995 20.1H29.4Z" fill="#00FA9A"/>
<path d="M63.5 13.4L58.2 3.60001C57.9 3.10001 57.3 2.70001 56.7 2.70001H55C54.7 2.70001 54.4 3.00001 54.4 3.30001C54.4 3.60001 54.7 3.90001 55 3.90001H56.8C57 3.90001 57.1 4.00001 57.2 4.20001L62.2 13.6H54.5C54.6 14 54.6 14.4 54.5 14.8H62.6C62.9 14.8 63.3 14.6 63.4 14.4C63.7 14.1 63.7 13.7 63.5 13.4Z" fill="#1E1C21"/>
<path d="M37.2 13.6L30.6 13.5L35.6 4.10001C35.7 3.90001 35.8 3.80001 36 3.80001H38.2C38.5 3.80001 38.8 3.50001 38.8 3.20001C38.8 2.90001 38.5 2.60001 38.2 2.60001H36C35.4 2.60001 34.8 2.90001 34.5 3.50001L29.2 13.4C29 13.7 29 14 29.2 14.3C29.4 14.6 29.7 14.8 30 14.8H37.1C37.1 14.4 37.1 14 37.2 13.6Z" fill="#1E1C21"/>
<path d="M62.2 28.5H30.7C29.7 28.5 29 27.7 29 26.8V14.2C29 13.9 29.3 13.6 29.6 13.6H38.2C38.7 13.6 39 13.5 39.5 14.2L41.8 16.7C41.9 16.8 42 16.9 42.2 16.9H50.9C51 16.9 51.2 16.8 51.3 16.7L53.6 14.2C53.9 13.8 54.4 13.6 54.9 13.6H63.5C63.8 13.6 64.1 13.9 64.1 14.2V26.8C63.9 27.7 63.1 28.5 62.2 28.5ZM30.2 14.8V26.8C30.2 27.1 30.4 27.3 30.7 27.3H62.2C62.5 27.3 62.7 27.1 62.7 26.8V14.8H54.7C54.6 14.8 54.4 14.9 54.3 15L52 17.5C51.7 17.9 51.2 18.1 50.7 18.1H42C41.5 18.1 41.1 17.9 40.7 17.5L38.5 15C38.4 14.9 38.3 14.8 38.1 14.8H30.2Z" fill="#1E1C21"/>
<path d="M51 25.2H41.8C40.8 25.2 40.1 24.4 40.1 23.5V21.5C40.1 20.5 40.9 19.8 41.8 19.8H51C52 19.8 52.7 20.6 52.7 21.5V23.5C52.8 24.4 52 25.2 51 25.2ZM41.8 21C41.5 21 41.3 21.2 41.3 21.5V23.5C41.3 23.8 41.5 24 41.8 24H51C51.3 24 51.5 23.8 51.5 23.5V21.5C51.5 21.2 51.3 21 51 21H41.8Z" fill="#1E1C21"/>
<path d="M53.9 5.9H39.3C38.3 5.9 37.6 5.1 37.6 4.2V1.7C37.6 0.7 38.4 0 39.3 0H53.9C54.9 0 55.6 0.8 55.6 1.7V4.1C55.6 5.1 54.9 5.9 53.9 5.9ZM39.3 1.2C39 1.2 38.8 1.5 38.8 1.8V4.2C38.8 4.5 39 4.7 39.3 4.7H53.9C54.2 4.7 54.4 4.5 54.4 4.2V1.7C54.4 1.4 54.2 1.2 53.9 1.2H39.3Z" fill="#1E1C21"/>
<path d="M55.4 10.3H37.8C36.8 10.3 36.1 9.50001 36.1 8.60001V6.40001C36.1 5.40001 36.9 4.70001 37.8 4.70001H55.5C56.5 4.70001 57.2 5.50001 57.2 6.40001V8.60001C57.2 9.50001 56.4 10.3 55.4 10.3ZM37.8 5.90001C37.5 5.90001 37.3 6.10001 37.3 6.40001V8.60001C37.3 8.90001 37.5 9.10001 37.8 9.10001H55.5C55.8 9.10001 56 8.90001 56 8.60001V6.40001C56 6.10001 55.8 5.90001 55.5 5.90001H37.8Z" fill="#1E1C21"/>
<path d="M57.1 9.10001H36.1C35.2 9.10001 34.4 9.80001 34.4 10.8V13.1C34.4 14 35.1 14.8 36.1 14.8H38.6C38.9 14.8 39.2 14.5 39.2 14.2C39.2 13.9 38.9 13.6 38.6 13.6H36.1C35.8 13.6 35.6 13.4 35.6 13.1V10.8C35.6 10.5 35.8 10.3 36.1 10.3H47.9C48.5 10 49.3 9.80001 50.1 9.80001C51 9.80001 51.7 10 52.3 10.3H57.1C57.4 10.3 57.6 10.5 57.6 10.8V13.1C57.6 13.4 57.4 13.6 57.1 13.6H54.8C54.9 14 54.9 14.4 54.9 14.8H57.1C58.1 14.8 58.9 14 58.8 13.1V10.8C58.8 9.90001 58.1 9.10001 57.1 9.10001Z" fill="#1E1C21"/>
<path d="M49.3 39.1H44.6C44.3 39.1 44 38.8 44 38.5C44 38.2 44.3 37.9 44.6 37.9H49.3C49.6 37.9 49.9 38.2 49.9 38.5C49.9 38.8 49.6 39.1 49.3 39.1Z" fill="#1E1C21"/>
<path d="M54.2 32.3C53.9 32.3 53.6 32 53.6 31.7V27.9C53.6 27.6 53.9 27.3 54.2 27.3C54.5 27.3 54.8 27.6 54.8 27.9V31.7C54.8 32 54.5 32.3 54.2 32.3Z" fill="#1E1C21"/>
<path d="M15.7 51.8H4.59998C2.09998 51.8 0.0999756 49.8 0.0999756 47.4V23.9C0.0999756 21.4 2.09998 19.4 4.59998 19.4H29.6C29.9 19.4 30.2 19.7 30.2 20C30.2 20.3 29.9 20.6 29.6 20.6H4.59998C2.79998 20.6 1.39998 22 1.39998 23.8V47.2C1.39998 49 2.79998 50.4 4.59998 50.4H15.7C16 50.4 16.3 50.7 16.3 51C16.3 51.3 16 51.8 15.7 51.8Z" fill="#1E1C21"/>
<path d="M40.6 51.8H29.5C29.2 51.8 28.9 51.5 28.9 51.2C28.9 50.9 29.2 50.6 29.5 50.6H40.6C42.4 50.6 43.8 49.2 43.8 47.4V27.9C43.8 27.6 44.1 27.3 44.4 27.3C44.7 27.3 45 27.6 45 27.9V47.3C45.1 49.8 43.1 51.8 40.6 51.8Z" fill="#1E1C21"/>
<path d="M26.8999 64H18.2999C16.9999 64 15.7999 63.4 14.9999 62.5C14.1999 61.5 13.7999 60.2 13.9999 59L16.4999 42.2C16.7999 40 18.6999 38.4 20.8999 38.4H24.5999C26.7999 38.4 28.6999 40 28.9999 42.2L31.4999 59C31.6999 60.3 31.2999 61.6 30.4999 62.5C29.3999 63.4 28.1999 64 26.8999 64ZM20.7999 39.6C19.1999 39.6 17.8999 40.8 17.6999 42.3L15.1999 59.1C14.9999 60 15.2999 61 15.8999 61.7C16.4999 62.4 17.3999 62.8 18.2999 62.8H26.8999C27.7999 62.8 28.6999 62.4 29.2999 61.7C29.8999 61 30.1999 60.1 29.9999 59.2L27.4999 42.4C27.2999 40.9 25.8999 39.7 24.3999 39.7L20.7999 39.6Z" fill="#1E1C21"/>
<path d="M22.6 34.2C20.8001 34.2 19.3 32.7 19.3 30.9C19.3 29.1 20.8001 27.6 22.6 27.6C24.4001 27.6 25.9 29.1 25.9 30.9C25.9 32.7 24.4001 34.2 22.6 34.2ZM22.6 28.9C21.5001 28.9 20.6 29.8 20.6 30.9C20.6 32 21.5001 32.9 22.6 32.9C23.7 32.9 24.6 32 24.6 30.9C24.6 29.8 23.7 28.9 22.6 28.9Z" fill="#1E1C21"/>
<path d="M59.1 33.5V39.5C59.1 40.2 58.7 40.9 58.1 41.3L54.2001 44.1L50.3 41.3C49.7 40.9 49.4 40.2 49.3 39.5V33.5L54.2001 31.4L59.1 33.5Z" fill="#00FA9A"/>
<path d="M53.4 40.1C53.2 40.1 53.1 40 53 39.9L51.2 38.1C51 37.9 51 37.5 51.2 37.2C51.4 37 51.8 37 52.1 37.2L53.4 38.5L56.4 35.5C56.6 35.3 57 35.3 57.3 35.5C57.5 35.7 57.5 36.1 57.3 36.4L53.8 39.9C53.7 40.1 53.5 40.1 53.4 40.1Z" fill="#1E1C21"/>
<path d="M52.4001 3.59999H40.9001C40.6001 3.59999 40.3 3.29999 40.3 2.99999C40.3 2.69999 40.6001 2.39999 40.9001 2.39999H52.4001C52.7001 2.39999 53 2.59999 53 2.99999C53 3.39999 52.7001 3.59999 52.4001 3.59999Z" fill="#1E1C21"/>
<path d="M52.4001 8.09999H40.9001C40.6001 8.09999 40.3 7.79999 40.3 7.49999C40.3 7.19999 40.6001 6.89999 40.9001 6.89999H52.4001C52.7001 6.89999 53 7.19999 53 7.49999C53 7.79999 52.7001 8.09999 52.4001 8.09999Z" fill="#1E1C21"/>
<path d="M52.4001 12.6H40.9001C40.6001 12.6 40.3 12.3 40.3 12C40.3 11.7 40.6001 11.4 40.9001 11.4H52.4001C52.7001 11.4 53 11.7 53 12C53 12.3 52.7001 12.6 52.4001 12.6Z" fill="#1E1C21"/>
<path d="M50.6 15.2H42.6C42.3 15.2 42 14.9 42 14.6C42 14.3 42.3 14 42.6 14H50.6C50.9 14 51.2 14.3 51.2 14.6C51.2 14.9 51 15.2 50.6 15.2Z" fill="#1E1C21"/>
<path d="M4.20002 7.10001H2.90002V8.00001H4.20002V7.10001Z" fill="#1E1C21"/>
<path d="M5.20002 7.90002H3.90002V8.80002H5.20002V7.90002Z" fill="#1E1C21"/>
<path d="M6.10005 7.10001H4.80005V8.00001H6.10005V7.10001Z" fill="#1E1C21"/>
<path d="M5.20002 6.20001H3.90002V7.10001H5.20002V6.20001Z" fill="#1E1C21"/>
<path d="M37.3 55.6H36V56.5H37.3V55.6Z" fill="#1E1C21"/>
<path d="M38.3 56.4H37V57.3H38.3V56.4Z" fill="#1E1C21"/>
<path d="M39.2 55.6H37.9V56.5H39.2V55.6Z" fill="#1E1C21"/>
<path d="M38.3 54.7H37V55.6H38.3V54.7Z" fill="#1E1C21"/>
<path d="M58.5 45.4H57.2V46.3H58.5V45.4Z" fill="#1E1C21"/>
<path d="M59.4 46.3H58.1V47.2H59.4V46.3Z" fill="#1E1C21"/>
<path d="M60.4 45.4H59.1V46.3H60.4V45.4Z" fill="#1E1C21"/>
<path d="M59.4 44.6H58.1V45.5H59.4V44.6Z" fill="#1E1C21"/>
<path d="M21.8 15.1H20.5V16H21.8V15.1Z" fill="#1E1C21"/>
<path d="M22.8 16H21.5V16.9H22.8V16Z" fill="#1E1C21"/>
<path d="M23.8 15.1H22.5V16H23.8V15.1Z" fill="#1E1C21"/>
<path d="M22.8 14.2H21.5V15.1H22.8V14.2Z" fill="#1E1C21"/>
<path d="M13.9 46.5H10.9C10.6 46.5 10.3 46.2 10.3 45.9C10.3 45.6 10.6 45.3 10.9 45.3H13.9C14.2 45.3 14.5 45.6 14.5 45.9C14.5 46.2 14.2 46.5 13.9 46.5Z" fill="#1E1C21"/>
<path d="M8.79998 46.5H0.699976C0.399976 46.5 0.0999756 46.2 0.0999756 45.9C0.0999756 45.6 0.399976 45.3 0.699976 45.3H8.79998C9.09998 45.3 9.39997 45.6 9.39997 45.9C9.39997 46.2 9.19998 46.5 8.79998 46.5Z" fill="#1E1C21"/>
<path d="M10.4 42.6H0.699976C0.399976 42.6 0.0999756 42.3 0.0999756 42C0.0999756 41.7 0.399976 41.4 0.699976 41.4H10.3C10.6 41.4 10.9 41.7 10.9 42C10.9 42.3 10.7 42.6 10.4 42.6Z" fill="#1E1C21"/>
</g>
<defs>
<clipPath id="clip0">
<rect width="64" height="64" fill="white"/>
</clipPath>
</defs>
</svg>
