<svg width="64" height="64" viewBox="0 0 64 64" fill="none" xmlns="http://www.w3.org/2000/svg">
<path d="M54.8001 46.5C54.8001 46.5 54.7001 46.6 54.8001 46.5L53.3001 47.6L46.9001 51.9L46.8001 52H46.7001C46.7001 52 46.7001 52 46.6001 52H46.5001C46.5001 52 46.5001 52 46.4001 52C46.4001 52 46.4001 52 46.3001 52C46.3001 52 46.3001 52 46.2001 52L43.5001 51.8L38.9001 51.6C39.1001 51.6 39.2001 51.6 39.4001 51.6C40.5001 51.4 41.3 50.5 41.3 49.4C41.1 47.6 39.7001 46.2 38.0001 45.9L27.7001 44.7C25.2001 44.3 22.8001 43.5 20.6001 42.2C20.4001 42.1 20.3001 42 20.1001 41.9C20.1001 41.9 20.0001 41.9 20.0001 41.8C19.9001 41.7 19.7001 41.7 19.6001 41.6C19.6001 41.6 19.6001 41.6 19.5001 41.6C19.3001 41.5 19.2001 41.4 19.0001 41.4C18.8001 41.3 18.7001 41.3 18.5001 41.2C18.2001 41.1 17.8001 40.9 17.5001 40.8H17.4001C17.3001 40.8 17.2001 40.7 17.1001 40.7C17.0001 40.7 17.0001 40.7 16.9001 40.6C16.8001 40.6 16.8001 40.6 16.7001 40.6C16.7001 40.6 16.7001 40.6 16.7001 40.5C15.9001 36.1 16.4 31.7 18.8 29.4C20.1 28.2 22.0001 27.6 24.1001 27.3L24.6001 28.9L24.2001 30.8L19.7001 30.3C19.0001 30.2 18.3001 30.8 18.2001 31.5C18.1001 32.2 18.7001 32.9 19.4001 33L25.1001 33.6C25.8001 33.7 26.4001 33.2 26.5001 32.5C27.4001 27.9 27.4001 28.2 27.4001 28L27.9001 27.8C28.0001 27.9 27.7001 27.6 30.6001 30.8L27.5001 35C27.1001 35.6 27.2 36.4 27.8 36.9C28.4 37.3 29.2001 37.2 29.7001 36.6L33.4001 31.5C33.8001 31 33.7 30.3 33.3 29.8C32.4 28.9 31.8 28.1 31.3 27.6C32.4 27.8 33.4001 28 34.5001 28.2C38.3001 29 41.4001 30 44.3001 31.5C44.3001 31.5 44.3001 31.5 44.4001 31.5L46.2001 34L45.1001 38.7C45.0001 38.8 45.2001 38.6 42.7001 41.7C42.4001 42.1 42.4001 42.6 42.7001 42.9L45.6001 46.4C45.9001 46.8 46.6001 46.9 47.0001 46.5C47.4001 46.1 47.4001 45.5 47.1001 45.1L44.7001 42.2C46.6001 39.8 46.5001 40 46.5001 39.9L46.9001 40C46.9001 40.1 46.9001 39.9 47.8001 43.2C47.9001 43.7 48.4001 44 48.9001 43.9L53.0001 43.2C53.5001 43.1 53.9001 42.6 53.8001 42.1C53.7001 41.6 53.2001 41.2 52.7001 41.3L49.5001 41.9L49.1001 40.6L50.2001 35.9C53.1001 39.2 55.5001 43.2 54.8001 46.5Z" fill="#C4A9DB"/>
<path d="M25.2999 63.3C25.1999 63.3 25.1 63.3 25 63.3C24.5 63.3 24 63.2 23.5 63L10.4 58C10.3 58 10.2 58 10.2 58C9.99995 58.1 9.69995 58.1 9.49995 58C9.29995 57.9 9.19995 57.6 9.19995 57.4V39.8C9.19995 39.5 9.29995 39.3 9.49995 39.2C9.69995 39 9.99995 39 10.2 39.1H10.3H11.6C12.5 39.1 13.4 39.2 14.3 39.3C14.7 39.4 15 39.4 15.4 39.5L16.2 39.7C16.3 39.7 16.3 39.7 16.4 39.8C16.5 39.8 16.7 39.9 16.8 39.9H16.9C17.1 39.9 17.2 40 17.3 40H17.4C17.8 40.1 18.1 40.3 18.5 40.4C18.7 40.5 18.9 40.6 19.1 40.6C19.3 40.7 19.5 40.8 19.6 40.9C19.8 41 19.9 41.1 20.1 41.2L20.2 41.3C20.4 41.4 20.5 41.5 20.7 41.6C22.8 42.8 25.1 43.6 27.6 44H27.7L38 45.2C40.2 45.5 41.7999 47.2 42 49.4C42 50 41.7999 50.6 41.5 51.1L46.2 51.3H46.2999L52.7 47L59.2999 42.6C60.5999 41.7 62.2999 42.1 63.2 43.4C64 44.6 63.7999 46.2 62.7 47.1L50 58.5C48.7999 59.5 47.4 60.1 46 60.3L26.2 63.2C25.8 63.3 25.5999 63.3 25.2999 63.3ZM10.7 56.5C10.8 56.5 10.9 56.5 11 56.6L24.1 61.6C24.5 61.7 24.8 61.8 25.2 61.8C25.5 61.8 25.7 61.8 25.9 61.8L45.7 58.9C46.9 58.7 48 58.2 49 57.4L61.7999 45.9C62.2999 45.5 62.4 44.7 62 44.2C61.5999 43.6 60.7999 43.4 60.2 43.9L53.7 48.3L47.2999 52.6C47.2 52.7 47.0999 52.7 47.0999 52.7C47.0999 52.7 47 52.7 47 52.8C47 52.8 47 52.8 46.9 52.8H46.7H46.5999H46.5L43.7 52.6L23 51.8H22.9C22.1 51.7 21.4 51.3 20.9 50.7C20.4 50.1 20.2 49.4 20.2 48.6C20.2 48.2 20.6 47.9 21 47.9C21.4 47.9 21.7 48.3 21.7 48.7C21.7 49.1 21.8 49.5 22 49.7C22.3 50 22.6 50.2 23 50.2L39 51C39.4 51 39.7999 50.9 40.0999 50.6C40.3999 50.3 40.5999 49.9 40.5999 49.5C40.4999 48.1 39.3 46.9 37.9 46.7L27.6 45.5C24.9 45.1 22.4 44.3 20.2 42.9C20.1 42.8 19.9 42.7 19.8 42.7L19.7 42.6C19.6 42.5 19.4 42.5 19.3 42.4C19.1 42.3 18.9 42.2 18.8 42.1C18.6 42 18.5 42 18.3 41.9C17.9 41.7 17.6 41.6 17.3 41.5L17.1 41.4C17 41.4 17 41.3 16.9 41.3C16.8 41.3 16.8 41.3 16.7 41.2C16.5 41.1 16.3 41.1 16.2 41.1L15.1 41C14.8 40.9 14.4 40.9 14.1 40.8C13.3 40.7 12.4 40.6 11.6 40.6H10.7V56.5Z" fill="#1E1C21"/>
<path d="M7.40005 61H3.60005C1.80005 61 0.300049 59.5 0.300049 57.7V40C0.300049 38.2 1.80005 36.7 3.60005 36.7H7.40005C9.20005 36.7 10.7 38.2 10.7 40V57.6C10.7 59.5 9.20005 61 7.40005 61ZM3.60005 38.2C2.60005 38.2 1.80005 39 1.80005 40V57.6C1.80005 58.6 2.60005 59.4 3.60005 59.4H7.40005C8.40005 59.4 9.20005 58.6 9.20005 57.6V40C9.20005 39 8.40005 38.2 7.40005 38.2H3.60005Z" fill="#1E1C21"/>
<path d="M5.5 59C4.1 59 3 57.9 3 56.6C3 55.3 4.1 54.2 5.4 54.2C6.7 54.2 7.8 55.3 7.8 56.6C7.8 57.9 6.8 59 5.5 59ZM5.5 55.7C5 55.7 4.6 56.1 4.6 56.6C4.6 57.1 5 57.5 5.5 57.5C6 57.5 6.4 57.1 6.4 56.6C6.4 56.1 6 55.7 5.5 55.7Z" fill="#1E1C21"/>
<path d="M1.3 53.8C0.9 53.8 0.6 53.5 0.5 53.1C0.5 52.7 0.8 52.3 1.2 52.3C3 52.3 5.3 52.3 7.2 52.3H7.6C7.9 52 8.2 51.7 8.6 51.3C8.8 51.1 9 50.9 9.2 50.7C9.5 50.4 10 50.4 10.3 50.7C10.6 51 10.6 51.5 10.3 51.8C10.1 52 9.9 52.2 9.7 52.4C9.3 52.9 8.8 53.3 8.3 53.7C8.2 53.8 8 53.9 7.8 53.9H7.3C5.4 53.8 3.1 53.8 1.3 53.8Z" fill="#1E1C21"/>
<path d="M48.2 10.3H47.2V11.1H48.2V10.3Z" fill="#1E1C21"/>
<path d="M49.2 11.2H48.2V12H49.2V11.2Z" fill="#1E1C21"/>
<path d="M50.0999 10.3H49.0999V11.1H50.0999V10.3Z" fill="#1E1C21"/>
<path d="M49.2 9.5H48.2V10.3H49.2V9.5Z" fill="#1E1C21"/>
<path d="M36 40.5H35V41.4H36V40.5Z" fill="#1E1C21"/>
<path d="M37 41.4H36V42.2H37V41.4Z" fill="#1E1C21"/>
<path d="M37.8999 40.5H36.8999V41.4H37.8999V40.5Z" fill="#1E1C21"/>
<path d="M37 39.7H36V40.6H37V39.7Z" fill="#1E1C21"/>
<path d="M29.8999 4.20001H28.8999V5.10001H29.8999V4.20001Z" fill="#1E1C21"/>
<path d="M30.7998 5.10004H29.7998V6.00004H30.7998V5.10004Z" fill="#1E1C21"/>
<path d="M31.7 4.20001H30.7V5.10001H31.7V4.20001Z" fill="#1E1C21"/>
<path d="M30.7998 3.40002H29.7998V4.30002H30.7998V3.40002Z" fill="#1E1C21"/>
<path d="M9.30005 29.7H8.30005V30.6H9.30005V29.7Z" fill="#1E1C21"/>
<path d="M10.3 30.6H9.30005V31.5H10.3V30.6Z" fill="#1E1C21"/>
<path d="M11.3 29.7H10.3V30.6H11.3V29.7Z" fill="#1E1C21"/>
<path d="M10.3 28.7H9.30005V29.6H10.3V28.7Z" fill="#1E1C21"/>
<path d="M23.6 19.7C22.9 19.7 22.2 19.4 21.6 18.9C21 18.4 20.6 17.6 20.6 16.8C20.5 16 20.8 15.2 21.3 14.6C21.8 14 22.6 13.6 23.4 13.5C24.2 13.4 25 13.7 25.6 14.3C26.2 14.8 26.6 15.6 26.6 16.4C26.7 17.2 26.4 18 25.9 18.6C25.4 19.2 24.6 19.6 23.8 19.7C23.8 19.7 23.7 19.7 23.6 19.7ZM23.6 15.1H23.5C23.1 15.1 22.7 15.3 22.4 15.6C22.1 15.9 22 16.3 22 16.8C22 17.2 22.2 17.6 22.5 17.9C22.8 18.2 23.2 18.3 23.6 18.3C24 18.3 24.4 18.1 24.7 17.8C25 17.5 25.1 17.1 25.1 16.7C25.1 16.3 24.9 15.9 24.6 15.6C24.4 15.2 24 15.1 23.6 15.1Z" fill="#1E1C21"/>
<path d="M28.5999 38C28.1999 38 27.6999 37.9 27.3999 37.6C26.4999 36.9 26.2999 35.6 26.9999 34.7L29.6999 31L28.5999 29.8C28.3999 29.5 28.1999 29.3 27.9999 29.1C27.8999 29.4 27.8999 29.8 27.6999 30.3L27.1999 32.7C26.9999 33.8 25.9999 34.5 24.8999 34.4L19.1999 33.8C18.0999 33.7 17.1999 32.6 17.3999 31.5C17.4999 30.9 17.6999 30.4 18.1999 30.1C18.5999 29.8 19.1999 29.6 19.6999 29.7L23.4999 30.1L23.6999 29.1L21.5999 22.4L14.8999 16.4C14.0999 15.7 14.0999 14.5 14.6999 13.8C14.9999 13.4 15.4999 13.2 15.9999 13.2C16.4999 13.2 16.9999 13.3 17.2999 13.7L22.9999 18.8C23.1999 18.7 23.4999 18.6 23.9999 18.5L25.1999 18.1L29.1999 11.7C29.4999 11.3 29.8999 11 30.3999 10.9C30.8999 10.8 31.3999 10.9 31.7999 11.2C32.6999 11.8 32.8999 12.9 32.3999 13.8L28.4999 20L30.3999 25.8C30.5999 26 30.9999 26.4 31.9999 27.5L33.8999 29.6C34.5999 30.3 34.5999 31.5 33.9999 32.3L30.2999 37.4C29.9999 37.9 29.4999 38.1 28.8999 38.2C28.7999 38 28.6999 38 28.5999 38ZM27.8999 27.2C28.0999 27.2 28.2999 27.3 28.4999 27.5C28.5999 27.6 28.6999 27.7 29.6999 28.8L31.1999 30.5C31.3999 30.8 31.4999 31.2 31.1999 31.4L28.0999 35.6C27.8999 35.9 27.9999 36.2 28.1999 36.4C28.2999 36.5 28.4999 36.5 28.5999 36.5C28.7999 36.5 28.8999 36.4 28.9999 36.3L32.6999 31.2C32.8999 31 32.8999 30.6 32.6999 30.4L30.7999 28.3C29.6999 27.1 29.2999 26.7 29.2999 26.6C29.1999 26.5 29.0999 26.4 28.9999 26.2L26.9999 19.8C26.8999 19.6 26.9999 19.4 27.0999 19.2L31.1999 12.7C31.2999 12.5 31.2999 12.3 31.0999 12.2C30.9999 12.1 30.8999 12.1 30.7999 12.2C30.6999 12.2 30.5999 12.3 30.5999 12.4L26.4999 19C26.3999 19.2 26.2999 19.3 26.0999 19.3L24.5999 19.8C23.5999 20.1 23.3999 20.2 23.2999 20.2C22.9999 20.3 22.6999 20.3 22.3999 20.1L16.3999 14.7C16.2999 14.6 16.1999 14.6 16.0999 14.6C15.9999 14.6 15.8999 14.6 15.8999 14.7C15.7999 14.9 15.7999 15.1 15.8999 15.2L22.6999 21.3C22.7999 21.4 22.8999 21.5 22.8999 21.6L25.1999 28.7C25.1999 28.8 25.1999 29 25.1999 29.1L24.7999 31C24.6999 31.4 24.3999 31.6 23.9999 31.6L19.4999 31.1C19.3999 31.1 19.1999 31.1 19.0999 31.2C18.9999 31.3 18.8999 31.4 18.8999 31.6C18.8999 31.9 19.0999 32.2 19.3999 32.3L25.0999 32.9C25.3999 32.9 25.6999 32.7 25.6999 32.4L26.1999 30C26.4999 28.6 26.5999 28.2 26.5999 28.1C26.5999 27.8 26.7999 27.5 27.0999 27.4L27.5999 27.2C27.6999 27.2 27.7999 27.2 27.8999 27.2Z" fill="#1E1C21"/>
<path d="M48.8 34.1C47.5 34.1 46.5 33.1 46.5 31.8C46.5 30.5 47.5 29.5 48.8 29.5C50.1 29.5 51.1 30.5 51.1 31.8C51.1 33.1 50.1 34.1 48.8 34.1ZM48.8 30.8C48.2 30.8 47.8 31.3 47.8 31.8C47.8 32.4 48.3 32.8 48.8 32.8C49.3 32.8 49.8 32.3 49.8 31.8C49.8 31.2 49.4 30.8 48.8 30.8Z" fill="#1E1C21"/>
<path d="M46.2001 47.6H46.1001C45.7001 47.6 45.3001 47.4 45.0001 47L42.1001 43.5C41.6001 42.9 41.6001 42 42.1001 41.4L43.3001 39.8C44.0001 38.9 44.2001 38.6 44.4001 38.4L45.4001 34.2L42.3001 30C41.8001 29.4 42.0001 28.4 42.6001 28C42.9001 27.8 43.3001 27.7 43.7001 27.7C44.1001 27.8 44.4001 28 44.7001 28.3L47.9001 32.7L48.9001 32.9C49.0001 33 49.2001 33 49.4001 33L53.2001 29.1C53.5001 28.8 53.8001 28.7 54.2001 28.7C54.6001 28.7 54.9001 28.8 55.2001 29.1C55.8001 29.7 55.8001 30.6 55.2001 31.2L50.7001 35.8L49.5001 40.7L49.7001 41.3L52.4001 40.8C52.8001 40.7 53.2001 40.8 53.6001 41.1C54.0001 41.3 54.2001 41.7 54.3001 42.2C54.5001 43.1 53.9001 43.9 53.0001 44.1L48.9001 44.8C48.1001 44.9 47.3001 44.4 47.1001 43.6L46.6001 41.9C46.5001 41.6 46.5001 41.4 46.4001 41.2C46.3001 41.3 46.3001 41.4 46.2001 41.5L45.5001 42.4L47.6001 44.8C48.2001 45.5 48.1001 46.5 47.4001 47.1C47.0001 47.4 46.6001 47.6 46.2001 47.6ZM43.5001 29C43.4001 29 43.4001 29 43.5001 29C43.3001 29.1 43.3001 29.2 43.4001 29.3L46.7001 33.8C46.8001 34 46.9001 34.1 46.8001 34.3L45.6001 39C45.6001 39.1 45.5001 39.3 45.4001 39.3C45.3001 39.4 45.1001 39.7 44.3001 40.6L43.1001 42.2C43.0001 42.3 43.0001 42.5 43.1001 42.6L46.0001 46.1C46.1001 46.2 46.2001 46.2 46.2001 46.2C46.2001 46.2 46.3001 46.2 46.4001 46.1C46.5001 46 46.6001 45.8 46.4001 45.6L44.0001 42.8C43.8001 42.6 43.8001 42.2 44.0001 42L45.1001 40.6C45.7001 39.9 45.8001 39.8 45.8001 39.7C46.0001 39.5 46.2001 39.4 46.5001 39.4L46.9001 39.5C47.2001 39.6 47.4001 39.8 47.4001 40.1C47.4001 40.2 47.5001 40.4 47.8001 41.5L48.3001 43.2C48.3001 43.4 48.5001 43.5 48.7001 43.4L52.8001 42.7C53.0001 42.7 53.1001 42.5 53.1001 42.3C53.1001 42.2 53.0001 42.1 53.0001 42.1C53.0001 42.1 52.9001 42 52.8001 42L49.6001 42.6C49.3001 42.7 48.9001 42.5 48.9001 42.1L48.5001 40.8C48.5001 40.7 48.5001 40.6 48.5001 40.5L49.8001 35.2C49.8001 35.1 49.9001 35 50.0001 34.9L54.6001 30.1C54.7001 30 54.7001 29.9 54.6001 29.9H54.5001H54.4001L50.0001 34.2C49.8001 34.4 49.5001 34.4 49.3001 34.4C49.2001 34.4 49.1001 34.3 48.5001 34.2L47.3001 33.9C47.2001 33.9 47.0001 33.8 46.9001 33.6L43.6001 29H43.5001Z" fill="#1E1C21"/>
<path d="M1.80009 9.69998L7.8001 1.89998C8.3001 1.19998 9.3001 1.09998 10.0001 1.59998L14.4001 4.89998C15.1001 5.39998 15.2001 6.49998 14.7001 7.19998L8.70009 15C8.20009 15.7 7.10009 15.8 6.40009 15.3L2.10009 12C1.40009 11.5 1.20009 10.4 1.80009 9.69998Z" fill="#C4A9DB"/>
<path d="M12.3 15.2L15.7 10.8V10.7L13.4 8.90002L12.6 10L13.9 11L12.1 13.3L10.8 12.3L10 13.4L11.3 14.3L12.3 15.2Z" fill="#C4A9DB"/>
<path d="M59.0999 21.7L62.5 25.1C63 25.6 63 26.3 62.5 26.8L60.7999 28.5C60.2999 29 59.5999 29 59.0999 28.5L55.7 25.1C55.2 24.6 55.2 23.9 55.7 23.4L57.4 21.7C57.9 21.2 58.6999 21.2 59.0999 21.7Z" fill="#C4A9DB"/>
<path d="M55.2 26.8L57.4 29L58.5 27.9L58 27.4L57.4 28L56.2 26.8L56.9 26.2L56.2999 25.7L55.7 26.3L55.2 26.8Z" fill="#C4A9DB"/>
</svg>
