<svg width="349" height="114" viewBox="0 0 349 114" fill="none" xmlns="http://www.w3.org/2000/svg">
<path d="M259.53 72.3989C259.53 78.898 254.221 84.2072 247.721 84.2072C241.222 84.2072 235.913 78.898 235.913 72.3989C235.913 65.8998 241.222 60.5906 247.721 60.5906H259.53V72.3989Z" fill="#E01E5A"/>
<path d="M265.479 72.3989C265.479 65.8998 270.788 60.5906 277.288 60.5906C283.787 60.5906 289.096 65.8998 289.096 72.3989V101.965C289.096 108.465 283.787 113.774 277.288 113.774C270.788 113.774 265.479 108.465 265.479 101.965V72.3989Z" fill="#E01E5A"/>
<path d="M277.288 24.6166C270.789 24.6166 265.479 19.3074 265.479 12.8083C265.479 6.30915 270.789 1 277.288 1C283.787 1 289.096 6.30915 289.096 12.8083V24.6166H277.288Z" fill="#36C5F0"/>
<path d="M277.288 30.5665C283.787 30.5665 289.096 35.8756 289.096 42.3748C289.096 48.8739 283.787 54.183 277.288 54.183H247.721C241.222 54.183 235.913 48.8739 235.913 42.3748C235.913 35.8756 241.222 30.5665 247.721 30.5665H277.288Z" fill="#36C5F0"/>
<path d="M325.07 42.3748C325.07 35.8756 330.379 30.5665 336.878 30.5665C343.377 30.5665 348.687 35.8756 348.687 42.3748C348.687 48.8739 343.377 54.183 336.878 54.183H325.07V42.3748Z" fill="#2EB67D"/>
<path d="M319.12 42.3748C319.12 48.8739 313.811 54.183 307.312 54.183C300.813 54.183 295.503 48.8739 295.503 42.3748V12.8083C295.503 6.30915 300.813 1 307.312 1C313.811 1 319.12 6.30915 319.12 12.8083V42.3748Z" fill="#2EB67D"/>
<path d="M307.312 90.1571C313.811 90.1571 319.12 95.4662 319.12 101.965C319.12 108.465 313.811 113.774 307.312 113.774C300.813 113.774 295.504 108.465 295.504 101.965V90.1571H307.312Z" fill="#ECB22E"/>
<path d="M307.312 84.2072C300.813 84.2072 295.504 78.898 295.504 72.3989C295.504 65.8998 300.813 60.5906 307.312 60.5906H336.879C343.378 60.5906 348.687 65.8998 348.687 72.3989C348.687 78.898 343.378 84.2072 336.879 84.2072H307.312Z" fill="#ECB22E"/>
<path d="M54.7274 22.6689C60.9922 22.6689 66.0709 17.5943 66.0709 11.3344C66.0709 5.0746 60.9922 0 54.7274 0C48.4625 0 43.3838 5.0746 43.3838 11.3344C43.3838 17.5943 48.4625 22.6689 54.7274 22.6689Z" fill="#FF54AC"/>
<path d="M63.8818 44.7412L79.8025 22.0723C80.9965 20.2827 80.7766 18.0151 78.8074 16.7034C78.1683 16.2776 77.6134 15.908 76.8174 15.908H76.6183C75.2253 15.908 74.0312 16.7034 73.2352 17.6976C67.0659 27.839 53.7323 31.0206 43.3839 24.8562C40.3987 23.0666 38.0106 20.6804 36.2195 17.6976C35.4235 16.5045 34.2294 15.908 32.8364 15.908C30.6473 15.908 28.8562 17.6976 28.8562 19.885C28.8562 20.6804 29.0552 21.4758 29.6522 22.0723L45.971 44.7412C46.767 45.7354 47.9611 46.332 49.1551 46.332H60.4986C62.0907 46.332 63.0857 45.7354 63.8818 44.7412Z" fill="#FF54AC"/>
<path d="M54.7274 113.742C60.9922 113.742 66.0709 108.667 66.0709 102.408C66.0709 96.1478 60.9922 91.0732 54.7274 91.0732C48.4625 91.0732 43.3839 96.1478 43.3839 102.408C43.3839 108.667 48.4625 113.742 54.7274 113.742Z" fill="#8953B7"/>
<path d="M63.8818 69.0009L79.8025 91.6698C80.9966 93.4594 80.5986 95.8456 78.8075 97.0387C78.2105 97.4364 77.4144 97.8341 76.6184 97.8341H76.4194C75.0263 97.8341 73.8323 97.0387 73.0362 96.0445C66.8669 85.9031 53.5333 82.7215 43.1849 88.8859C40.1997 90.6755 37.8116 93.0617 36.0206 96.0445C35.2245 97.2376 34.0305 97.8341 32.6374 97.8341C30.4483 97.8341 28.6572 96.0445 28.6572 93.8571C28.6572 93.0617 28.8562 92.2663 29.4533 91.6698L45.772 69.0009C46.568 68.0067 47.7621 67.4101 48.9561 67.4101H60.2997C62.0907 67.4101 63.0858 68.0067 63.8818 69.0009Z" fill="#8953B7"/>
<path d="M11.3435 68.4043C17.6083 68.4043 22.687 63.3297 22.687 57.0699C22.687 50.81 17.6083 45.7354 11.3435 45.7354C5.07866 45.7354 0 50.81 0 57.0699C0 63.3297 5.07866 68.4043 11.3435 68.4043Z" fill="#00FA9A"/>
<path d="M44.777 47.9228L22.09 32.0148C20.2989 30.8217 17.9108 31.2194 16.7167 33.009C16.1197 33.4067 15.9207 34.2021 15.9207 34.9975V35.1964C15.9207 36.5883 16.7167 37.7814 17.9108 38.5768C28.0602 44.7412 31.2444 58.0641 25.0751 68.4043C23.284 71.3871 20.8959 73.7732 17.9108 75.5629C16.7167 76.3583 16.1197 77.5514 16.1197 78.9433C16.1197 81.1307 17.9108 82.9203 20.0999 82.9203C20.8959 82.9203 21.692 82.7215 22.289 82.1249L44.976 65.8193C45.971 65.0239 46.5681 63.8308 46.5681 62.6377V51.3032C46.3691 49.7124 45.772 48.7182 44.777 47.9228Z" fill="#00FA9A"/>
<path d="M100.3 68.4043C106.565 68.4043 111.644 63.3297 111.644 57.0699C111.644 50.81 106.565 45.7354 100.3 45.7354C94.0354 45.7354 88.9567 50.81 88.9567 57.0699C88.9567 63.3297 94.0354 68.4043 100.3 68.4043Z" fill="#FFBC00"/>
<path d="M66.8667 47.9228L89.5538 31.816C91.3448 30.6229 93.7329 31.0206 94.927 32.8102C95.325 33.4068 95.723 34.2022 95.723 34.9976V35.1964C95.723 36.5884 94.927 37.7815 93.932 38.5769C83.7825 44.7412 80.5983 58.0641 86.7676 68.4043C88.5587 71.3871 90.9468 73.7733 93.932 75.5629C95.126 76.3583 95.723 77.5514 95.723 78.9434C95.723 81.1307 93.9319 82.9203 91.7428 82.9203C90.9468 82.9203 90.1508 82.7215 89.5538 82.1249L66.8667 65.8193C65.8717 65.0239 65.2747 63.8308 65.2747 62.6377V51.3032C65.2747 49.7124 65.8717 48.7182 66.8667 47.9228Z" fill="#FFBC00"/>
<path d="M150.676 54.2092L190.482 54.2091L178.164 41.7641C177.085 40.6745 177.085 38.907 178.164 37.8176C179.243 36.7275 180.992 36.7275 182.07 37.8176L199.104 55.0265C200.183 56.116 200.183 57.8836 199.104 58.9729L182.07 76.1825C181.531 76.7278 180.824 77 180.117 77C179.41 77 178.703 76.7278 178.164 76.1825C177.085 75.093 177.085 73.3255 178.164 72.2363L190.482 59.7905L150.676 59.7905C149.151 59.7905 147.914 58.5409 147.914 56.9998C147.914 55.4586 149.151 54.2092 150.676 54.2092Z" fill="#BCB1CC"/>
</svg>
