<svg width="124" height="37" viewBox="0 0 124 37" fill="none" xmlns="http://www.w3.org/2000/svg">
<path d="M17.4782 7.23972C19.479 7.23972 21.101 5.61905 21.101 3.61986C21.101 1.62067 19.479 0 17.4782 0C15.4774 0 13.8555 1.62067 13.8555 3.61986C13.8555 5.61905 15.4774 7.23972 17.4782 7.23972Z" fill="#FF54AC"/>
<path d="M20.4018 14.2889L25.4864 7.0492C25.8678 6.47765 25.7975 5.75345 25.1686 5.33453C24.9645 5.19856 24.7873 5.08051 24.5331 5.08051H24.4695C24.0246 5.08051 23.6433 5.33453 23.389 5.65206C21.4188 8.89089 17.1604 9.90699 13.8555 7.93829C12.9021 7.36673 12.1394 6.60466 11.5674 5.65206C11.3132 5.27103 10.9318 5.08051 10.4869 5.08051C9.7878 5.08051 9.21579 5.65206 9.21579 6.35063C9.21579 6.60466 9.27935 6.85868 9.47002 7.0492L14.6817 14.2889C14.9359 14.6065 15.3173 14.797 15.6986 14.797H19.3214C19.8298 14.797 20.1476 14.6065 20.4018 14.2889Z" fill="#FF54AC"/>
<path d="M17.4782 36.3258C19.479 36.3258 21.101 34.7051 21.101 32.7059C21.101 30.7067 19.479 29.0861 17.4782 29.0861C15.4774 29.0861 13.8555 30.7067 13.8555 32.7059C13.8555 34.7051 15.4774 36.3258 17.4782 36.3258Z" fill="#8953B7"/>
<path d="M20.4018 22.0369L25.4864 29.2766C25.8678 29.8481 25.7406 30.6102 25.1686 30.9912C24.978 31.1183 24.7237 31.2453 24.4695 31.2453H24.4059C23.961 31.2453 23.5797 30.9912 23.3255 30.6737C21.3552 27.4349 17.0969 26.4188 13.7919 28.3875C12.8385 28.959 12.0759 29.7211 11.5038 30.6737C11.2496 31.0548 10.8683 31.2453 10.4234 31.2453C9.72424 31.2453 9.15223 30.6737 9.15223 29.9751C9.15223 29.7211 9.21579 29.4671 9.40646 29.2766L14.6181 22.0369C14.8724 21.7193 15.2537 21.5288 15.6351 21.5288H19.2578C19.8298 21.5288 20.1476 21.7193 20.4018 22.0369Z" fill="#8953B7"/>
<path d="M3.62276 21.8463C5.62355 21.8463 7.24551 20.2256 7.24551 18.2264C7.24551 16.2272 5.62355 14.6066 3.62276 14.6066C1.62196 14.6066 0 16.2272 0 18.2264C0 20.2256 1.62196 21.8463 3.62276 21.8463Z" fill="#00FA9A"/>
<path d="M14.3004 15.3051L7.05484 10.2246C6.48283 9.8436 5.72014 9.97062 5.3388 10.5422C5.14813 10.6692 5.08457 10.9232 5.08457 11.1772V11.2407C5.08457 11.6853 5.3388 12.0663 5.72014 12.3204C8.96156 14.289 9.97847 18.544 8.0082 21.8463C7.43618 22.7989 6.6735 23.561 5.72014 24.1325C5.3388 24.3866 5.14813 24.7676 5.14813 25.2121C5.14813 25.9107 5.72014 26.4823 6.41927 26.4823C6.6735 26.4823 6.92773 26.4188 7.1184 26.2282L14.3639 21.0207C14.6817 20.7667 14.8724 20.3857 14.8724 20.0046V16.3848C14.8088 15.8767 14.6181 15.5592 14.3004 15.3051Z" fill="#00FA9A"/>
<path d="M32.0328 21.8458C34.0336 21.8458 35.6556 20.2252 35.6556 18.226C35.6556 16.2268 34.0336 14.6061 32.0328 14.6061C30.032 14.6061 28.41 16.2268 28.41 18.226C28.41 20.2252 30.032 21.8458 32.0328 21.8458Z" fill="#FFBC00"/>
<path d="M21.3552 15.3047L28.6007 10.1607C29.1727 9.77964 29.9354 9.90665 30.3168 10.4782C30.4439 10.6687 30.571 10.9228 30.571 11.1768V11.2403C30.571 11.6848 30.3168 12.0659 29.999 12.3199C26.7576 14.2886 25.7406 18.5435 27.7109 21.8458C28.2829 22.7984 29.0456 23.5605 29.999 24.1321C30.3803 24.3861 30.571 24.7671 30.571 25.2117C30.571 25.9102 29.999 26.4818 29.2998 26.4818C29.0456 26.4818 28.7914 26.4183 28.6007 26.2278L21.3552 21.0203C21.0374 20.7662 20.8467 20.3852 20.8467 20.0042V16.3843C20.8467 15.8762 21.0374 15.5587 21.3552 15.3047Z" fill="#FFBC00"/>
<path d="M54.2142 19.306H46.2696V27.3078H42.7104V8.38295H46.2696V16.1307H54.1507V8.38295H57.7099V27.3078H54.1507V19.306H54.2142Z" fill="#797283"/>
<path d="M61.0148 9.33554V8.76399C61.0148 7.74789 61.5869 7.04932 63.0487 7.04932C64.4469 7.04932 65.0825 7.81139 65.0825 8.76399V9.33554C65.0825 10.3516 64.4469 11.0502 63.0487 11.0502C61.6504 11.0502 61.0148 10.3516 61.0148 9.33554ZM61.3326 13.1459H64.8283V27.3078H61.3326V13.1459Z" fill="#797283"/>
<path d="M67.1799 24.5136L69.5951 22.1638C70.9298 23.688 72.5187 24.5136 74.489 24.5136C76.7135 24.5136 77.8575 23.434 77.8575 21.8463C77.8575 20.5762 77.2855 19.8141 75.2517 19.4331L73.4721 19.179C69.6586 18.6075 67.8155 16.7658 67.8155 13.654C67.8155 10.2881 70.4213 8.06543 74.6796 8.06543C77.5397 8.06543 79.6371 9.01802 81.1625 10.8597L78.7473 13.1459C77.7939 12.0028 76.5228 11.1772 74.489 11.1772C72.4551 11.1772 71.3747 12.0028 71.3747 13.4C71.3747 14.8606 72.2009 15.4322 73.9805 15.7497L75.7601 16.0672C79.5735 16.7658 81.3531 18.4805 81.3531 21.5923C81.3531 25.1486 78.7473 27.6254 74.2347 27.6254C71.0569 27.6254 68.8324 26.3552 67.1799 24.5136Z" fill="#797283"/>
<path d="M84.7217 23.688V15.8767H82.6243V13.0824H83.7048C84.7217 13.0824 85.0395 12.5744 85.0395 11.6218V9.20854H88.1538V13.0824H91.0774V15.8767H88.1538V24.5136H90.8232V27.3078H88.3444C85.9928 27.3078 84.7217 25.9742 84.7217 23.688Z" fill="#797283"/>
<path d="M92.4121 23.434C92.4121 20.5127 94.6366 19.1155 98.45 19.1155H100.865V18.0994C100.865 16.5118 100.103 15.6227 98.2593 15.6227C96.6069 15.6227 95.7171 16.4483 95.0179 17.4009L92.9841 15.5592C94.001 13.908 95.6535 12.8284 98.5136 12.8284C102.327 12.8284 104.361 14.6701 104.361 17.9089V24.5771H105.759V27.3078H103.852C102.327 27.3078 101.437 26.3553 101.247 24.8946H101.056C100.611 26.7363 99.022 27.6889 96.9246 27.6889C94.0646 27.6254 92.4121 25.9742 92.4121 23.434ZM100.929 23.0529V21.2112H98.7042C96.8611 21.2112 95.9713 21.8463 95.9713 22.9259V23.3705C95.9713 24.5136 96.734 25.0851 98.1322 25.0851C99.6576 25.0851 100.929 24.3866 100.929 23.0529Z" fill="#797283"/>
<path d="M108.683 15.8767H106.585V13.1459H108.683V11.1137C108.683 8.63698 110.017 7.23984 112.623 7.23984H115.102V10.0341H112.178V13.2094H115.102V15.8767H112.178V27.3078H108.683V15.8767Z" fill="#797283"/>
<path d="M117.581 15.8767H115.483V13.1459H117.581V11.1137C117.581 8.63698 118.915 7.23984 121.521 7.23984H124V10.0341H121.076V13.2094H124V15.8767H121.076V27.3078H117.581V15.8767Z" fill="#797283"/>
<path d="M54.2142 19.306H46.2696V27.3078H42.7104V8.38295H46.2696V16.1307H54.1507V8.38295H57.7099V27.3078H54.1507V19.306H54.2142Z" fill="#797283"/>
<path d="M61.0148 9.33554V8.76399C61.0148 7.74789 61.5869 7.04932 63.0487 7.04932C64.4469 7.04932 65.0825 7.81139 65.0825 8.76399V9.33554C65.0825 10.3516 64.4469 11.0502 63.0487 11.0502C61.6504 11.0502 61.0148 10.3516 61.0148 9.33554ZM61.3326 13.1459H64.8283V27.3078H61.3326V13.1459Z" fill="#797283"/>
<path d="M67.1799 24.5136L69.5951 22.1638C70.9298 23.688 72.5187 24.5136 74.489 24.5136C76.7135 24.5136 77.8575 23.434 77.8575 21.8463C77.8575 20.5762 77.2855 19.8141 75.2517 19.4331L73.4721 19.179C69.6586 18.6075 67.8155 16.7658 67.8155 13.654C67.8155 10.2881 70.4213 8.06543 74.6796 8.06543C77.5397 8.06543 79.6371 9.01802 81.1625 10.8597L78.7473 13.1459C77.7939 12.0028 76.5228 11.1772 74.489 11.1772C72.4551 11.1772 71.3747 12.0028 71.3747 13.4C71.3747 14.8606 72.2009 15.4322 73.9805 15.7497L75.7601 16.0672C79.5735 16.7658 81.3531 18.4805 81.3531 21.5923C81.3531 25.1486 78.7473 27.6254 74.2347 27.6254C71.0569 27.6254 68.8324 26.3552 67.1799 24.5136Z" fill="#797283"/>
<path d="M84.7217 23.688V15.8767H82.6243V13.0824H83.7048C84.7217 13.0824 85.0395 12.5744 85.0395 11.6218V9.20854H88.1538V13.0824H91.0774V15.8767H88.1538V24.5136H90.8232V27.3078H88.3444C85.9928 27.3078 84.7217 25.9742 84.7217 23.688Z" fill="#797283"/>
<path d="M92.4121 23.434C92.4121 20.5127 94.6366 19.1155 98.45 19.1155H100.865V18.0994C100.865 16.5118 100.103 15.6227 98.2593 15.6227C96.6069 15.6227 95.7171 16.4483 95.0179 17.4009L92.9841 15.5592C94.001 13.908 95.6535 12.8284 98.5136 12.8284C102.327 12.8284 104.361 14.6701 104.361 17.9089V24.5771H105.759V27.3078H103.852C102.327 27.3078 101.437 26.3553 101.247 24.8946H101.056C100.611 26.7363 99.022 27.6889 96.9246 27.6889C94.0646 27.6254 92.4121 25.9742 92.4121 23.434ZM100.929 23.0529V21.2112H98.7042C96.8611 21.2112 95.9713 21.8463 95.9713 22.9259V23.3705C95.9713 24.5136 96.734 25.0851 98.1322 25.0851C99.6576 25.0851 100.929 24.3866 100.929 23.0529Z" fill="#797283"/>
<path d="M108.683 15.8767H106.585V13.1459H108.683V11.1137C108.683 8.63698 110.017 7.23984 112.623 7.23984H115.102V10.0341H112.178V13.2094H115.102V15.8767H112.178V27.3078H108.683V15.8767Z" fill="#797283"/>
<path d="M117.581 15.8767H115.483V13.1459H117.581V11.1137C117.581 8.63698 118.915 7.23984 121.521 7.23984H124V10.0341H121.076V13.2094H124V15.8767H121.076V27.3078H117.581V15.8767Z" fill="#797283"/>
</svg>
