<svg width="152" height="45" viewBox="0 0 152 45" fill="none" xmlns="http://www.w3.org/2000/svg">
<path d="M21.2949 8.82063C23.7326 8.82063 25.7087 6.84607 25.7087 4.41032C25.7087 1.97457 23.7326 0 21.2949 0C18.8572 0 16.881 1.97457 16.881 4.41032C16.881 6.84607 18.8572 8.82063 21.2949 8.82063Z" fill="#FF54AC"/>
<path d="M24.8569 17.4091L31.0518 8.58851C31.5164 7.89215 31.4308 7.00981 30.6646 6.49942C30.4159 6.33375 30.2 6.18992 29.8903 6.18992H29.8128C29.2708 6.18992 28.8062 6.49942 28.4964 6.88629C26.0959 10.8324 20.9077 12.0703 16.881 9.67175C15.7195 8.97538 14.7903 8.0469 14.0933 6.88629C13.7836 6.42204 13.319 6.18992 12.7769 6.18992C11.9251 6.18992 11.2282 6.88629 11.2282 7.7374C11.2282 8.0469 11.3056 8.35639 11.538 8.58851L17.8877 17.4091C18.1974 17.796 18.6621 18.0281 19.1267 18.0281H23.5405C24.16 18.0281 24.5472 17.796 24.8569 17.4091Z" fill="#FF54AC"/>
<path d="M21.2949 44.2579C23.7326 44.2579 25.7087 42.2834 25.7087 39.8476C25.7087 37.4119 23.7326 35.4373 21.2949 35.4373C18.8572 35.4373 16.881 37.4119 16.881 39.8476C16.881 42.2834 18.8572 44.2579 21.2949 44.2579Z" fill="#8953B7"/>
<path d="M24.8569 26.8488L31.0518 35.6694C31.5164 36.3658 31.3615 37.2943 30.6646 37.7585C30.4323 37.9133 30.1226 38.068 29.8128 38.068H29.7354C29.1933 38.068 28.7287 37.7585 28.419 37.3716C26.0185 33.4256 20.8303 32.1876 16.8036 34.5862C15.6421 35.2825 14.7128 36.211 14.0159 37.3716C13.7062 37.8359 13.2415 38.068 12.6995 38.068C11.8477 38.068 11.1508 37.3716 11.1508 36.5205C11.1508 36.211 11.2282 35.9015 11.4605 35.6694L17.8103 26.8488C18.12 26.4619 18.5846 26.2298 19.0492 26.2298H23.4631C24.16 26.2298 24.5472 26.4619 24.8569 26.8488Z" fill="#8953B7"/>
<path d="M4.41384 26.6166C6.85154 26.6166 8.82769 24.6421 8.82769 22.2063C8.82769 19.7706 6.85154 17.796 4.41384 17.796C1.97615 17.796 0 19.7706 0 22.2063C0 24.6421 1.97615 26.6166 4.41384 26.6166Z" fill="#00FA9A"/>
<path d="M17.4231 18.6471L8.59538 12.4572C7.89846 11.993 6.96923 12.1477 6.50461 12.8441C6.27231 12.9988 6.19487 13.3083 6.19487 13.6178V13.6952C6.19487 14.2368 6.50461 14.701 6.96923 15.0105C10.9185 17.4091 12.1574 22.5932 9.75692 26.6166C9.06 27.7773 8.13077 28.7057 6.96923 29.4021C6.50461 29.7116 6.27231 30.1758 6.27231 30.7175C6.27231 31.5686 6.96923 32.2649 7.82102 32.2649C8.13077 32.2649 8.44051 32.1876 8.67282 31.9554L17.5005 25.6108C17.8877 25.3013 18.12 24.837 18.12 24.3728V19.9625C18.0426 19.3435 17.8103 18.9566 17.4231 18.6471Z" fill="#00FA9A"/>
<path d="M39.0277 26.6166C41.4654 26.6166 43.4415 24.6421 43.4415 22.2063C43.4415 19.7706 41.4654 17.796 39.0277 17.796C36.59 17.796 34.6138 19.7706 34.6138 22.2063C34.6138 24.6421 36.59 26.6166 39.0277 26.6166Z" fill="#FFBC00"/>
<path d="M26.0185 18.6471L34.8462 12.3798C35.5431 11.9156 36.4723 12.0703 36.9369 12.7667C37.0918 12.9988 37.2467 13.3083 37.2467 13.6178V13.6952C37.2467 14.2368 36.9369 14.7011 36.5497 15.0106C32.6005 17.4091 31.3615 22.5932 33.7621 26.6167C34.459 27.7773 35.3882 28.7057 36.5497 29.4021C37.0144 29.7116 37.2467 30.1759 37.2467 30.7175C37.2467 31.5686 36.5497 32.2649 35.698 32.2649C35.3882 32.2649 35.0785 32.1876 34.8462 31.9555L26.0185 25.6108C25.6313 25.3013 25.399 24.837 25.399 24.3728V19.9625C25.399 19.3435 25.6313 18.9566 26.0185 18.6471Z" fill="#FFBC00"/>
<path d="M66.0528 23.5217H56.3733V33.2708H52.0369V10.2134H56.3733V19.653H65.9754V10.2134H70.3118V33.2708H65.9754V23.5217H66.0528Z" fill="#797283"/>
<path d="M74.3385 11.374V10.6776C74.3385 9.43961 75.0354 8.5885 76.8164 8.5885C78.52 8.5885 79.2944 9.51699 79.2944 10.6776V11.374C79.2944 12.6119 78.52 13.4631 76.8164 13.4631C75.1128 13.4631 74.3385 12.6119 74.3385 11.374ZM74.7256 16.0164H78.9846V33.2708H74.7256V16.0164Z" fill="#797283"/>
<path d="M81.8497 29.8664L84.7923 27.0035C86.4185 28.8605 88.3544 29.8664 90.7549 29.8664C93.4651 29.8664 94.859 28.551 94.859 26.6166C94.859 25.0692 94.1621 24.1407 91.6841 23.6764L89.5159 23.3669C84.8697 22.6706 82.6241 20.4267 82.6241 16.6354C82.6241 12.5346 85.799 9.8265 90.9872 9.8265C94.4718 9.8265 97.0272 10.9871 98.8856 13.231L95.9431 16.0164C94.7815 14.6237 93.2328 13.6178 90.7549 13.6178C88.2769 13.6178 86.9605 14.6237 86.9605 16.3259C86.9605 18.1055 87.9672 18.8019 90.1354 19.1887L92.3036 19.5756C96.9497 20.4267 99.118 22.5158 99.118 26.3072C99.118 30.6401 95.9431 33.6577 90.4451 33.6577C86.5733 33.6577 83.8631 32.1102 81.8497 29.8664Z" fill="#797283"/>
<path d="M103.222 28.8605V19.3435H100.667V15.939H101.983C103.222 15.939 103.609 15.32 103.609 14.1594V11.2192H107.404V15.939H110.966V19.3435H107.404V29.8664H110.656V33.2708H107.636C104.771 33.2708 103.222 31.646 103.222 28.8605Z" fill="#797283"/>
<path d="M112.592 28.551C112.592 24.9918 115.302 23.2896 119.948 23.2896H122.891V22.0516C122.891 20.1172 121.962 19.034 119.716 19.034C117.703 19.034 116.618 20.0399 115.767 21.2005L113.289 18.9566C114.528 16.9449 116.541 15.6295 120.026 15.6295C124.672 15.6295 127.15 17.8734 127.15 21.8195V29.9437H128.853V33.2708H126.53C124.672 33.2708 123.588 32.1102 123.355 30.3306H123.123C122.581 32.5745 120.645 33.7351 118.09 33.7351C114.605 33.6577 112.592 31.646 112.592 28.551ZM122.968 28.0868V25.8429H120.258C118.012 25.8429 116.928 26.6166 116.928 27.932V28.4736C116.928 29.8664 117.857 30.5627 119.561 30.5627C121.419 30.5627 122.968 29.7116 122.968 28.0868Z" fill="#797283"/>
<path d="M132.415 19.3435H129.86V16.0164H132.415V13.5404C132.415 10.5229 134.042 8.82063 137.216 8.82063H140.236V12.2251H136.674V16.0938H140.236V19.3435H136.674V33.2708H132.415V19.3435Z" fill="#797283"/>
<path d="M143.256 19.3435H140.701V16.0164H143.256V13.5404C143.256 10.5229 144.883 8.82063 148.057 8.82063H151.077V12.2251H147.515V16.0938H151.077V19.3435H147.515V33.2708H143.256V19.3435Z" fill="#797283"/>
<path d="M66.0528 23.5217H56.3733V33.2708H52.0369V10.2134H56.3733V19.653H65.9754V10.2134H70.3118V33.2708H65.9754V23.5217H66.0528Z" fill="#797283"/>
<path d="M74.3385 11.374V10.6776C74.3385 9.43961 75.0354 8.5885 76.8164 8.5885C78.52 8.5885 79.2944 9.51699 79.2944 10.6776V11.374C79.2944 12.6119 78.52 13.4631 76.8164 13.4631C75.1128 13.4631 74.3385 12.6119 74.3385 11.374ZM74.7256 16.0164H78.9846V33.2708H74.7256V16.0164Z" fill="#797283"/>
<path d="M81.8497 29.8664L84.7923 27.0035C86.4185 28.8605 88.3544 29.8664 90.7549 29.8664C93.4651 29.8664 94.859 28.551 94.859 26.6166C94.859 25.0692 94.1621 24.1407 91.6841 23.6764L89.5159 23.3669C84.8697 22.6706 82.6241 20.4267 82.6241 16.6354C82.6241 12.5346 85.799 9.8265 90.9872 9.8265C94.4718 9.8265 97.0272 10.9871 98.8856 13.231L95.9431 16.0164C94.7815 14.6237 93.2328 13.6178 90.7549 13.6178C88.2769 13.6178 86.9605 14.6237 86.9605 16.3259C86.9605 18.1055 87.9672 18.8019 90.1354 19.1887L92.3036 19.5756C96.9497 20.4267 99.118 22.5158 99.118 26.3072C99.118 30.6401 95.9431 33.6577 90.4451 33.6577C86.5733 33.6577 83.8631 32.1102 81.8497 29.8664Z" fill="#797283"/>
<path d="M103.222 28.8605V19.3435H100.667V15.939H101.983C103.222 15.939 103.609 15.32 103.609 14.1594V11.2192H107.404V15.939H110.966V19.3435H107.404V29.8664H110.656V33.2708H107.636C104.771 33.2708 103.222 31.646 103.222 28.8605Z" fill="#797283"/>
<path d="M112.592 28.551C112.592 24.9918 115.302 23.2896 119.948 23.2896H122.891V22.0516C122.891 20.1172 121.962 19.034 119.716 19.034C117.703 19.034 116.618 20.0399 115.767 21.2005L113.289 18.9566C114.528 16.9449 116.541 15.6295 120.026 15.6295C124.672 15.6295 127.15 17.8734 127.15 21.8195V29.9437H128.853V33.2708H126.53C124.672 33.2708 123.588 32.1102 123.355 30.3306H123.123C122.581 32.5745 120.645 33.7351 118.09 33.7351C114.605 33.6577 112.592 31.646 112.592 28.551ZM122.968 28.0868V25.8429H120.258C118.012 25.8429 116.928 26.6166 116.928 27.932V28.4736C116.928 29.8664 117.857 30.5627 119.561 30.5627C121.419 30.5627 122.968 29.7116 122.968 28.0868Z" fill="#797283"/>
<path d="M132.415 19.3435H129.86V16.0164H132.415V13.5404C132.415 10.5229 134.042 8.82063 137.216 8.82063H140.236V12.2251H136.674V16.0938H140.236V19.3435H136.674V33.2708H132.415V19.3435Z" fill="#797283"/>
<path d="M143.256 19.3435H140.701V16.0164H143.256V13.5404C143.256 10.5229 144.883 8.82063 148.057 8.82063H151.077V12.2251H147.515V16.0938H151.077V19.3435H147.515V33.2708H143.256V19.3435Z" fill="#797283"/>
</svg>
